<?xml version="1.0" encoding="UTF-8" standalone="no"?>
<!-- Created with Inkscape (http://www.inkscape.org/) -->

<svg
   width="210mm"
   height="297mm"
   viewBox="0 0 210 297"
   version="1.1"
   id="svg16373"
   inkscape:version="1.1.2 (0a00cf5339, 2022-02-04)"
   sodipodi:docname="side-image.svg"
   xmlns:inkscape="http://www.inkscape.org/namespaces/inkscape"
   xmlns:sodipodi="http://sodipodi.sourceforge.net/DTD/sodipodi-0.dtd"
   xmlns="http://www.w3.org/2000/svg"
   xmlns:svg="http://www.w3.org/2000/svg">
  <sodipodi:namedview
     id="namedview16375"
     pagecolor="#505050"
     bordercolor="#ffffff"
     borderopacity="1"
     inkscape:pageshadow="0"
     inkscape:pageopacity="0"
     inkscape:pagecheckerboard="1"
     inkscape:document-units="mm"
     showgrid="false"
     inkscape:zoom="4.508002"
     inkscape:rotation="1"
     inkscape:cx="264.44603"
     inkscape:cy="1001.0988"
     inkscape:window-width="956"
     inkscape:window-height="1064"
     inkscape:window-x="964"
     inkscape:window-y="8"
     inkscape:window-maximized="0"
     inkscape:current-layer="layer6" />
  <defs
     id="defs16370" />
  <g
     inkscape:label="Layer 1"
     inkscape:groupmode="layer"
     id="layer1" />
  <g
     inkscape:groupmode="layer"
     id="layer5"
     inkscape:label="desk">
    <g
       id="g12513"
       transform="matrix(-0.03527778,0,0,-0.03527778,113.83442,294.15006)"
       style="display:inline;mix-blend-mode:normal">
      <path
         d="m 1687.4646,955.46897 1.07,-377.66 12.05,6.96 -1.07,377.66 -12.05,-6.96"
         style="fill:#e3e3e3;fill-opacity:1;fill-rule:nonzero;stroke:none"
         id="path2862-0" />
      <path
         d="m 1034.8746,588.18897 -305.71,177.65 1.07,-377.65 305.71,-177.66 -1.07,377.66"
         style="fill:#f5f7f7;fill-opacity:1;fill-rule:nonzero;stroke:none"
         id="path2864-96" />
      <path
         d="m 1687.4646,955.46897 -305.71,177.66003 1.07,-377.66003 305.71,-177.66 -1.07,377.66"
         style="fill:#b9b9b9;fill-opacity:1;fill-rule:nonzero;stroke:none"
         id="path2858-3" />
      <path
         d="m 1034.8746,588.18897 1.07,-377.66 12.05,6.96 -1.07,377.66 -12.05,-6.96"
         style="fill:#e3e3e3;fill-opacity:1;fill-rule:nonzero;stroke:none"
         id="path2868-85" />
      <path
         d="m 1035.8046,587.67897 0.04,-13.87 663.65,384.97 -0.04,13.87 -663.65,-384.97"
         style="fill:#e3e3e3;fill-opacity:1;fill-rule:nonzero;stroke:none"
         id="path2872-6" />
      <path
         d="m 729.1646,765.87897 306.64,-178.2 663.65,384.97 -306.64,178.20003 -663.65,-384.97003"
         style="fill:#ffffff;fill-opacity:1;fill-rule:nonzero;stroke:none"
         id="path2874-1" />
    </g>
  </g>
  <g
     inkscape:groupmode="layer"
     id="layer3"
     inkscape:label="char">
    <g
       id="g14417"
       style="display:inline"
       transform="matrix(-0.3527778,0,0,-0.3527778,351.01399,296.34709)">
      <path
         d="m 840.47547,36.090705 c 0.01,0.3102 0.02,0.627 0.028,0.952 l 10e-4,0.0422 c 0.008,0.3367 0.015,0.6808 0.021,1.032 l 10e-4,0.0688 c 0.005,0.3332 0.008,0.673 0.01,1.0179 l 10e-4,0.0512 v 0.0359 c 0.002,0.5141 10e-4,1.0372 -0.005,1.5692 l -10e-4,0.0707 c -0.006,0.5402 -0.017,1.0883 -0.033,1.6402 v 0.0258 l -10e-4,0.0191 c -0.012,0.4071 -0.028,0.8168 -0.046,1.229 l -0.005,0.098 c -0.018,0.393 -0.039,0.7871 -0.063,1.1801 l -0.004,0.0597 -0.002,0.0262 c -0.041,0.6621 -0.093,1.3231 -0.155,1.977 l -0.003,0.039 -0.005,0.043 c -0.048,0.507 -0.104,1.0109 -0.166,1.5082 l -0.005,0.0457 -0.007,0.0481 c -0.053,0.414 -0.11,0.825 -0.173,1.2289 l -10e-4,0.0043 -10e-4,0.0097 c -0.055,0.35 -0.114,0.6961 -0.178,1.036 l -0.004,0.0273 -0.011,0.0539 c -0.054,0.2891 -0.111,0.5738 -0.172,0.8527 l -0.003,0.0153 -0.012,0.0508 c -0.043,0.1972 -0.088,0.3921 -0.135,0.5839 l -0.02,0.0872 -0.015,0.0589 c -0.05,0.1993 -0.1,0.395 -0.153,0.5871 l -0.005,0.02 -0.03,0.1011 c -0.034,0.1231 -0.069,0.2438 -0.105,0.3641 l -0.017,0.0578 -0.043,0.134 -0.076,0.2398 -0.023,0.0743 -0.042,0.1218 -0.08,0.2301 -0.028,0.082 -0.054,0.143 -0.05,0.136 -0.023,0.0589 c -0.037,0.0961 -0.074,0.1903 -0.113,0.2832 v 8e-4 l -0.005,0.011 -0.111,0.264 -0.029,0.0629 -0.042,0.0922 -0.05,0.1121 -0.094,0.1949 -0.066,0.134 c -0.089,0.1781 -0.18,0.3559 -0.274,0.532 l -0.038,0.0692 c -0.089,0.1648 -0.182,0.3269 -0.274,0.4898 -0.053,0.093 -0.103,0.1891 -0.157,0.2821 l -0.022,0.0339 c -0.216,0.3668 -0.445,0.7258 -0.681,1.0809 l -0.074,0.1172 -0.125,0.1758 c -0.102,0.148 -0.206,0.2953 -0.311,0.441 l -0.137,0.193 -0.148,0.1941 -0.164,0.2148 -0.115,0.1512 c -0.109,0.1391 -0.221,0.275 -0.334,0.4121 l -0.056,0.0688 -0.015,0.0191 c -0.135,0.1629 -0.273,0.3238 -0.413,0.4828 l -0.102,0.1133 -0.151,0.1668 -0.187,0.2082 -0.246,0.257 -0.161,0.168 -0.075,0.0801 c -0.173,0.175 -0.349,0.3488 -0.528,0.5207 l -0.005,0.0051 -10e-4,0.0011 c -0.192,0.184 -0.388,0.3668 -0.588,0.5457 l -0.055,0.0493 -0.247,0.2148 c -0.113,0.0981 -0.224,0.1981 -0.339,0.2949 l -0.097,0.0793 c -0.102,0.086 -0.206,0.1688 -0.31,0.2528 -0.095,0.0773 -0.188,0.1562 -0.284,0.232 l -0.127,0.0973 c -0.116,0.0898 -0.234,0.1789 -0.351,0.2668 l -0.263,0.2 -0.144,0.1019 c -0.129,0.0941 -0.261,0.1871 -0.392,0.2789 l -0.257,0.182 -0.147,0.0981 c -0.147,0.0992 -0.296,0.1961 -0.446,0.2941 l -0.263,0.1739 -0.135,0.082 c -0.169,0.107 -0.342,0.2109 -0.514,0.3152 -0.094,0.0559 -0.184,0.1141 -0.279,0.1699 l -0.223,0.1301 -3.848,-2.2359 c 0.17,-0.0981 0.334,-0.1992 0.501,-0.3 0.173,-0.1043 0.346,-0.2082 0.515,-0.3152 0.135,-0.084 0.267,-0.17 0.399,-0.2571 0.149,-0.0969 0.298,-0.1937 0.445,-0.2929 0.136,-0.0918 0.27,-0.186 0.404,-0.2801 0.132,-0.0918 0.263,-0.1848 0.393,-0.2789 0.137,-0.0989 0.271,-0.2 0.405,-0.3008 0.118,-0.0891 0.237,-0.1781 0.353,-0.2692 0.139,-0.1082 0.275,-0.2179 0.411,-0.3281 0.103,-0.084 0.207,-0.1668 0.309,-0.2519 0.148,-0.1239 0.294,-0.25 0.438,-0.377 l 0.245,-0.2129 c 0.219,-0.1961 0.434,-0.3941 0.644,-0.5961 l 0.006,-0.005 c 0.205,-0.1969 0.405,-0.3981 0.602,-0.6 l 0.162,-0.17 c 0.147,-0.1531 0.291,-0.307 0.432,-0.4629 l 0.152,-0.1691 c 0.18,-0.202 0.358,-0.407 0.53,-0.6141 l 0.055,-0.0679 c 0.153,-0.186 0.302,-0.3739 0.449,-0.5641 l 0.165,-0.2148 c 0.096,-0.1282 0.19,-0.2571 0.284,-0.386 0.106,-0.1472 0.21,-0.2941 0.312,-0.4429 0.067,-0.0961 0.133,-0.1942 0.198,-0.2911 0.236,-0.355 0.465,-0.7152 0.681,-1.082 0.061,-0.1039 0.119,-0.209 0.178,-0.3141 0.093,-0.1628 0.186,-0.3269 0.275,-0.4921 0.13,-0.243 0.257,-0.4868 0.379,-0.7348 0.048,-0.0992 0.096,-0.202 0.143,-0.3051 l 0.043,-0.0961 c 0.047,-0.107 0.094,-0.214 0.14,-0.325 l 0.004,-0.0097 c 0.046,-0.1122 0.091,-0.227 0.135,-0.3422 l 0.052,-0.1399 0.081,-0.2222 0.081,-0.2329 0.064,-0.1921 0.077,-0.243 0.059,-0.191 c 0.036,-0.1199 0.071,-0.2418 0.106,-0.3649 l 0.034,-0.1199 c 0.053,-0.1922 0.104,-0.3883 0.153,-0.5871 l 0.035,-0.1461 c 0.047,-0.193 0.093,-0.3891 0.136,-0.5867 l 0.014,-0.0621 c 0.061,-0.2801 0.118,-0.5653 0.172,-0.8539 l 0.016,-0.0813 c 0.063,-0.3398 0.122,-0.6847 0.177,-1.0359 l 0.002,-0.0141 c 0.063,-0.4039 0.121,-0.8148 0.174,-1.2289 l 0.011,-0.0941 c 0.063,-0.4969 0.118,-1.002 0.167,-1.5098 l 0.007,-0.0781 c 0.062,-0.6559 0.114,-1.318 0.156,-1.9801 l 0.005,-0.0809 c 0.024,-0.396 0.046,-0.7921 0.064,-1.1871 l 0.004,-0.0929 c 0.019,-0.4129 0.034,-0.8239 0.046,-1.234 l 0.001,-0.0379 c 0.017,-0.5539 0.028,-1.1031 0.034,-1.6441 l 10e-4,-0.0711 c 0.005,-0.5321 0.007,-1.0559 0.004,-1.5688 v -0.0871 c -0.002,-0.3449 -0.006,-0.6852 -0.011,-1.018 l -10e-4,-0.0691 c -0.005,-0.3508 -0.012,-0.6957 -0.021,-1.032 l -10e-4,-0.0418 c -0.008,-0.325 -0.017,-0.643 -0.028,-0.952 l -0.003,-0.0902 c -0.01,-0.2957 -0.021,-0.584 -0.033,-0.8629 l -0.004,-0.1008 c -0.007,-0.1812 -0.015,-0.3602 -0.024,-0.5332 l -0.004,-0.0859 c -0.007,-0.152 -0.015,-0.3012 -0.022,-0.4469 l -0.006,-0.1121 c -0.009,-0.1641 -0.017,-0.3231 -0.026,-0.4781 l -0.004,-0.0739 c -0.009,-0.139 -0.017,-0.273 -0.025,-0.4043 l -0.005,-0.0808 c -0.009,-0.1442 -0.018,-0.2828 -0.027,-0.416 l -0.004,-0.07 c -0.008,-0.116 -0.016,-0.2281 -0.024,-0.3351 l -0.004,-0.066 c -0.009,-0.1188 -0.017,-0.2309 -0.025,-0.3379 l -0.005,-0.0668 -0.02,-0.2543 -0.005,-0.061 -0.02,-0.2367 -0.004,-0.0402 -0.015,-0.166 -0.004,-0.052 -0.015,-0.1539 -0.001,-0.0062 -0.013,-0.1258 -0.002,-0.0231 -0.006,-0.0519 -0.003,-0.0199 -0.004,-0.027 -0.002,-0.0141 3.848,2.236 10e-4,0.0051 10e-4,0.0089 0.004,0.027 10e-4,0.0059 0.002,0.014 0.005,0.0481 0.002,0.0179 10e-4,0.0121 0.013,0.1188 0.002,0.0281 0.013,0.1352 0.005,0.0527 0.015,0.166 0.003,0.0403 0.02,0.2359 0.002,0.0219 0.003,0.041 0.02,0.2519 0.005,0.0692 c 0.009,0.1058 0.017,0.2179 0.025,0.3359 l 0.005,0.068 c 0.008,0.1058 0.015,0.2172 0.023,0.332 l 0.005,0.0731 c 0.009,0.13 0.018,0.266 0.026,0.407 l 0.007,0.1019 c 0.008,0.1258 0.015,0.2551 0.023,0.3879 l 0.004,0.0782 c 0.009,0.1539 0.018,0.3129 0.027,0.4757 l 0.006,0.1141 c 0.007,0.1453 0.015,0.293 0.022,0.4449 l 0.004,0.0871 c 0.008,0.1743 0.016,0.3512 0.024,0.5321 l 0.002,0.0558 0.002,0.0461 c 0.012,0.2789 0.023,0.5672 0.033,0.8633 l 0.003,0.0898"
         style="display:inline;fill:#414244;fill-opacity:1;fill-rule:nonzero;stroke:none;stroke-width:0.1"
         id="path1054-3" />
      <path
         d="m 823.96947,64.684905 c 4.709,-2.7192 8.182,-6.3082 10.322,-10.6711 3.684,-7.5191 2.048,-25.6582 1.977,-25.952 l -0.752,0.6411 c 0.016,0.0687 1.617,18.0738 -1.839,25.116 -1.983,4.0449 -5.25,7.4019 -9.71,9.9769 -4.482,2.5879 -7.819,3.0278 -9.917,1.3059 -3.618,-2.9629 -2.384,-22.5668 -2.37,-22.6531 l -0.76,0.264 c -0.057,0.366 -1.32,20.1371 2.529,23.2981 2.253,1.85 5.792,1.4039 10.52,-1.3258"
         style="display:inline;fill:#2b2b2b;fill-opacity:1;fill-rule:nonzero;stroke:none;stroke-width:0.1"
         id="path1056-0" />
      <path
         d="m 792.05947,32.428605 -0.002,0.034 -10e-4,0.0153 -0.004,0.057 -10e-4,0.0168 -0.01,0.1738 -10e-4,0.0094 -0.013,0.2359 -0.002,0.0418 c -0.005,0.0903 -0.01,0.1891 -0.016,0.2961 l -0.002,0.043 c -0.005,0.1129 -0.011,0.2332 -0.017,0.3629 l -10e-4,0.0043 c -0.005,0.1269 -0.012,0.2629 -0.018,0.4047 l -0.003,0.075 c -0.006,0.1382 -0.012,0.2832 -0.018,0.4339 l -0.003,0.1012 c -0.006,0.1559 -0.012,0.318 -0.018,0.4871 l -0.002,0.0598 c -0.006,0.1621 -0.011,0.3301 -0.017,0.5031 l -0.002,0.091 c -0.005,0.1442 -0.009,0.2918 -0.013,0.4418 l -0.002,0.0871 c -0.003,0.125 -0.006,0.2512 -0.009,0.3801 l -0.004,0.15 c -0.002,0.118 -0.005,0.2371 -0.007,0.3578 l -0.003,0.1391 c -0.006,0.3332 -0.011,0.6762 -0.015,1.0293 l -10e-4,0.1578 c -0.002,0.125 -0.003,0.2512 -0.003,0.3789 l -10e-4,0.1793 c -10e-4,0.1547 -0.002,0.3117 -0.002,0.4699 v 0.0778 c 0,0.182 0,0.366 10e-4,0.5511 l 10e-4,0.0801 c 0.002,0.5731 0.01,1.159 0.022,1.752 l 10e-4,0.0168 c 0.012,0.5921 0.031,1.191 0.055,1.789 l 0.003,0.0723 c 0.018,0.4269 0.04,0.8547 0.065,1.2797 l 0.005,0.082 c 0.026,0.432 0.056,0.8602 0.09,1.284 l 0.003,0.0391 c 0.027,0.3289 0.057,0.6539 0.089,0.975 l 0.009,0.0871 c 0.031,0.307 0.065,0.6097 0.102,0.907 l 0.015,0.116 c 0.029,0.2348 0.061,0.468 0.094,0.6961 l 0.013,0.0828 c 0.034,0.2289 0.069,0.4539 0.107,0.6738 l 0.007,0.0434 c 0.032,0.1816 0.065,0.359 0.099,0.534 l 0.027,0.1359 c 0.03,0.1489 0.061,0.2938 0.093,0.4367 l 0.02,0.0922 c 0.034,0.1481 0.069,0.293 0.105,0.4352 l 0.026,0.0976 c 0.029,0.109 0.058,0.2172 0.088,0.3223 l 0.028,0.0949 c 0.072,0.245 0.148,0.4789 0.229,0.7 l 0.027,0.075 0.08,0.2039 0.047,0.1161 0.1,0.2242 0.033,0.075 c 0.047,0.0968 0.094,0.1898 0.143,0.2789 l 0.039,0.0687 0.111,0.1883 0.034,0.05 c 0.083,0.1277 0.169,0.2469 0.258,0.3527 l 0.02,0.0211 c 0.094,0.109 0.192,0.2082 0.293,0.2911 0.182,0.1492 0.374,0.282 0.574,0.398 l -3.848,-2.2359 c -0.2,-0.1161 -0.391,-0.2493 -0.573,-0.3981 -0.102,-0.0832 -0.199,-0.182 -0.293,-0.291 l -0.02,-0.0219 c -0.09,-0.1051 -0.176,-0.2242 -0.259,-0.3519 l -0.019,-0.0262 -0.014,-0.0238 -0.111,-0.1883 -0.04,-0.0688 c -0.048,-0.089 -0.096,-0.182 -0.142,-0.2793 l -0.004,-0.0066 -0.03,-0.0684 -0.1,-0.2238 -0.047,-0.1172 -0.079,-0.2027 -0.016,-0.0391 -0.012,-0.0371 c -0.08,-0.2211 -0.157,-0.4539 -0.229,-0.6988 l -0.012,-0.0371 -0.016,-0.059 c -0.03,-0.1039 -0.059,-0.2121 -0.087,-0.3199 l -0.026,-0.0992 c -0.037,-0.1418 -0.072,-0.2868 -0.105,-0.4348 l -0.006,-0.0242 -0.015,-0.068 c -0.032,-0.143 -0.062,-0.2879 -0.092,-0.4367 l -0.027,-0.1352 c -0.035,-0.1761 -0.068,-0.3531 -0.099,-0.5351 l -0.003,-0.011 -0.005,-0.032 c -0.037,-0.2199 -0.073,-0.4449 -0.107,-0.6738 l -0.013,-0.0832 c -0.033,-0.2278 -0.064,-0.461 -0.094,-0.6957 l -0.009,-0.066 -0.006,-0.05 c -0.036,-0.2973 -0.07,-0.6 -0.102,-0.9071 l -0.009,-0.0883 c -0.032,-0.3187 -0.061,-0.6429 -0.088,-0.9699 l -0.003,-0.032 -10e-4,-0.0129 c -0.034,-0.423 -0.064,-0.8512 -0.09,-1.2809 l -0.005,-0.0839 c -0.025,-0.425 -0.046,-0.852 -0.064,-1.2793 l -0.002,-0.036 -10e-4,-0.0359 c -0.025,-0.5981 -0.043,-1.1969 -0.056,-1.7891 v -0.0168 c -0.013,-0.5929 -0.02,-1.1793 -0.023,-1.7519 v -0.0274 -0.0527 c -10e-4,-0.1852 -0.002,-0.3691 -0.002,-0.5512 l 0.001,-0.0777 c 0,-0.1582 0,-0.3152 10e-4,-0.4703 l 10e-4,-0.1789 c 10e-4,-0.1282 0.002,-0.2539 0.003,-0.3789 l 0.002,-0.1582 c 0.003,-0.3528 0.008,-0.6957 0.014,-1.0289 l 0.003,-0.1391 c 0.002,-0.1207 0.005,-0.2399 0.008,-0.3578 l 0.003,-0.15 c 0.003,-0.1281 0.006,-0.2551 0.009,-0.3789 l 0.003,-0.0883 c 0.004,-0.1508 0.008,-0.2981 0.012,-0.4418 l 10e-4,-0.0313 0.002,-0.0597 c 0.005,-0.1731 0.011,-0.341 0.016,-0.5031 l 0.002,-0.0598 c 0.006,-0.1692 0.012,-0.3313 0.018,-0.4883 l 0.004,-0.0988 c 0.006,-0.1512 0.012,-0.2961 0.017,-0.4352 l 0.004,-0.075 c 0.006,-0.1418 0.012,-0.2777 0.018,-0.4051 v -0.0039 c 0.006,-0.13 0.012,-0.25 0.018,-0.3629 l 0.002,-0.0429 c 0.005,-0.1071 0.01,-0.2059 0.015,-0.2961 l 0.002,-0.0418 0.014,-0.2363 v -0.0079 l 0.011,-0.175 v -0.0109 l 10e-4,-0.007 10e-4,-0.0281 0.003,-0.0411 10e-4,-0.0078 10e-4,-0.0179 0.001,-0.0243 10e-4,-0.0019 v -0.0121 l 10e-4,-0.009 v -8e-4 l 3.848,2.2359 -10e-4,0.0102 -10e-4,0.0117 -10e-4,0.016"
         style="display:inline;fill:#595a5d;fill-opacity:1;fill-rule:nonzero;stroke:none;stroke-width:0.1"
         id="path1058-3" />
      <path
         d="m 817.00947,23.795805 c 0.011,0.309 0.02,0.627 0.028,0.9528 l 10e-4,0.0421 c 0.009,0.336 0.016,0.6801 0.021,1.0309 l 10e-4,0.0691 c 0.005,0.334 0.009,0.6739 0.011,1.0192 v 0.05 0.0367 c 0.002,0.5133 10e-4,1.0371 -0.005,1.5691 v 0.07 c -0.006,0.541 -0.017,1.089 -0.034,1.641 v 0.025 l -10e-4,0.0191 c -0.012,0.4078 -0.027,0.818 -0.046,1.2301 l -0.004,0.0949 c -0.018,0.3949 -0.04,0.7899 -0.064,1.1848 l -0.003,0.057 -0.002,0.025 c -0.042,0.6621 -0.094,1.3231 -0.156,1.9781 l -0.003,0.0379 -0.004,0.043 c -0.049,0.5082 -0.104,1.0121 -0.167,1.509 l -0.005,0.0453 -0.006,0.0477 c -0.053,0.4152 -0.111,0.8261 -0.174,1.23 v 0.0032 l -0.002,0.0089 c -0.055,0.3508 -0.114,0.6969 -0.177,1.0379 l -0.005,0.0262 -0.01,0.0527 c -0.055,0.2891 -0.112,0.575 -0.173,0.8551 l -0.003,0.0141 -0.011,0.048 c -0.043,0.1981 -0.089,0.3942 -0.135,0.5871 l -0.02,0.086 -0.016,0.0597 c -0.049,0.1981 -0.1,0.3954 -0.153,0.5872 l -0.005,0.0191 -0.029,0.0988 c -0.034,0.1231 -0.069,0.2449 -0.106,0.366 l -0.016,0.0582 -0.043,0.1348 -0.077,0.2402 -0.022,0.0719 -0.042,0.1219 -0.08,0.232 -0.028,0.0801 -0.054,0.143 -0.051,0.1379 -0.022,0.0582 c -0.037,0.0961 -0.074,0.1898 -0.113,0.2828 l -10e-4,0.0019 -0.005,0.0133 -0.111,0.2609 -0.028,0.0622 -0.043,0.0949 -0.05,0.1097 -0.093,0.1961 -0.066,0.1321 c -0.089,0.18 -0.181,0.357 -0.275,0.534 l -0.038,0.0691 c -0.089,0.1648 -0.182,0.3277 -0.274,0.491 -0.053,0.093 -0.103,0.1879 -0.158,0.2809 l -0.021,0.034 c -0.216,0.3671 -0.445,0.7269 -0.681,1.0812 l -0.074,0.118 -0.124,0.175 c -0.102,0.1476 -0.207,0.2957 -0.313,0.4418 l -0.136,0.1929 -0.147,0.193 -0.165,0.216 -0.116,0.1512 c -0.109,0.1391 -0.22,0.275 -0.333,0.4117 l -0.055,0.0684 -0.017,0.0207 c -0.135,0.1633 -0.273,0.3242 -0.414,0.484 l -0.1,0.1113 -0.151,0.1668 -0.19,0.2109 -0.242,0.2531 -0.163,0.1711 -0.077,0.0809 c -0.17,0.173 -0.344,0.3449 -0.521,0.5141 l -0.009,0.0097 -0.003,0.0024 c -0.192,0.184 -0.388,0.3668 -0.588,0.5468 l -0.054,0.0469 -0.245,0.2133 c -0.114,0.0996 -0.226,0.2008 -0.342,0.2988 l -0.096,0.0782 c -0.102,0.0847 -0.206,0.1679 -0.309,0.2519 -0.096,0.0777 -0.189,0.157 -0.287,0.234 l -0.124,0.0949 c -0.116,0.0899 -0.235,0.1789 -0.353,0.268 l -0.263,0.2012 -0.142,0.1007 c -0.13,0.0942 -0.261,0.186 -0.393,0.2782 l -0.258,0.1828 -0.147,0.098 c -0.146,0.0981 -0.294,0.1949 -0.442,0.291 -0.089,0.059 -0.176,0.1192 -0.266,0.1762 l -0.136,0.0828 c -0.168,0.1063 -0.339,0.209 -0.511,0.3121 -0.094,0.0571 -0.185,0.116 -0.28,0.1719 l -0.223,0.1301 -3.847,-2.236 c 0.169,-0.098 0.334,-0.2 0.5,-0.3 0.173,-0.1039 0.346,-0.2082 0.515,-0.3148 0.134,-0.0844 0.266,-0.1703 0.398,-0.2562 0.149,-0.0969 0.299,-0.195 0.445,-0.2942 0.137,-0.0918 0.271,-0.1859 0.405,-0.2797 0.131,-0.0922 0.262,-0.184 0.391,-0.2781 0.138,-0.1 0.273,-0.2012 0.407,-0.302 0.118,-0.089 0.236,-0.1781 0.352,-0.2679 0.139,-0.1082 0.275,-0.218 0.411,-0.3281 0.103,-0.084 0.208,-0.168 0.309,-0.2532 0.149,-0.1238 0.293,-0.25 0.438,-0.3758 l 0.246,-0.214 c 0.218,-0.1961 0.433,-0.3942 0.643,-0.5961 l 0.017,-0.016 c 0.202,-0.1938 0.398,-0.391 0.592,-0.5891 l 0.162,-0.1699 c 0.146,-0.1527 0.29,-0.3078 0.432,-0.4641 l 0.152,-0.1687 c 0.18,-0.2031 0.358,-0.4071 0.53,-0.6153 l 0.056,-0.0679 c 0.153,-0.186 0.302,-0.3739 0.449,-0.5637 l 0.164,-0.2152 c 0.096,-0.127 0.19,-0.2571 0.284,-0.386 0.106,-0.1461 0.21,-0.2941 0.312,-0.4422 0.067,-0.0968 0.133,-0.1949 0.198,-0.2929 0.236,-0.3539 0.465,-0.7137 0.681,-1.0809 0.061,-0.1039 0.119,-0.2101 0.178,-0.314 0.093,-0.1641 0.187,-0.327 0.276,-0.493 0.129,-0.2418 0.257,-0.4871 0.378,-0.734 0.049,-0.1 0.096,-0.202 0.143,-0.3051 l 0.043,-0.0961 c 0.047,-0.1047 0.093,-0.2117 0.138,-0.3207 l 0.007,-0.0152 c 0.046,-0.1117 0.091,-0.227 0.135,-0.3418 l 0.052,-0.1391 0.081,-0.2238 0.08,-0.2312 0.065,-0.1942 0.076,-0.2398 0.06,-0.193 c 0.036,-0.1211 0.071,-0.2441 0.106,-0.368 l 0.033,-0.116 c 0.053,-0.1918 0.104,-0.389 0.153,-0.5871 l 0.036,-0.1457 c 0.047,-0.1934 0.092,-0.3891 0.136,-0.5871 l 0.014,-0.0621 c 0.06,-0.2801 0.117,-0.566 0.172,-0.8551 l 0.015,-0.0789 c 0.063,-0.341 0.123,-0.6871 0.178,-1.0391 l 0.002,-0.0109 c 0.063,-0.4039 0.12,-0.8148 0.173,-1.2309 l 0.012,-0.0921 c 0.062,-0.4981 0.117,-1.002 0.166,-1.5098 l 0.008,-0.0793 c 0.062,-0.6547 0.113,-1.3168 0.155,-1.9789 l 0.005,-0.082 c 0.025,-0.395 0.046,-0.7899 0.064,-1.1848 l 0.005,-0.0953 c 0.018,-0.4117 0.033,-0.8219 0.046,-1.2297 l 10e-4,-0.0442 c 0.016,-0.5519 0.027,-1.1 0.033,-1.641 l 10e-4,-0.0699 c 0.006,-0.532 0.007,-1.0562 0.004,-1.5691 v -0.0871 c -0.002,-0.345 -0.005,-0.6848 -0.01,-1.0188 l -10e-4,-0.0691 c -0.006,-0.3508 -0.013,-0.695 -0.021,-1.0309 l -10e-4,-0.0422 c -0.009,-0.325 -0.018,-0.6429 -0.028,-0.9519 l -0.004,-0.091 c -0.01,-0.295 -0.021,-0.5829 -0.032,-0.8622 l -0.004,-0.1007 c -0.008,-0.1821 -0.016,-0.3602 -0.024,-0.5332 l -0.005,-0.0868 c -0.007,-0.1511 -0.014,-0.3 -0.022,-0.4453 l -0.006,-0.1136 c -0.008,-0.1633 -0.017,-0.3223 -0.026,-0.4762 l -0.004,-0.0801 c -0.008,-0.132 -0.016,-0.2598 -0.024,-0.384 l -0.006,-0.1058 c -0.009,-0.1391 -0.017,-0.2743 -0.026,-0.4039 l -0.005,-0.0782 c -0.008,-0.1121 -0.016,-0.2211 -0.023,-0.325 l -0.005,-0.073 c -0.009,-0.116 -0.017,-0.227 -0.025,-0.332 l -0.006,-0.077 -0.019,-0.2418 -0.005,-0.0691 -0.02,-0.2321 -0.004,-0.0461 -0.014,-0.1597 -0.005,-0.0563 -0.013,-0.132 -0.003,-0.0309 -0.012,-0.1179 -0.003,-0.0301 -0.006,-0.0469 -0.002,-0.0223 -0.004,-0.0257 -0.003,-0.0141 3.848,2.2359 10e-4,0.0039 10e-4,0.0102 0.004,0.027 10e-4,0.0062 0.002,0.0117 0.006,0.052 10e-4,0.0152 0.002,0.0129 0.012,0.1219 10e-4,0.0113 0.015,0.1488 0.005,0.0551 0.014,0.159 0.004,0.0469 0.02,0.2379 10e-4,0.0171 0.003,0.0372 c 0.007,0.082 0.014,0.1687 0.021,0.2597 l 0.004,0.061 c 0.009,0.107 0.017,0.2203 0.025,0.339 l 0.006,0.0731 c 0.007,0.105 0.015,0.2129 0.022,0.325 l 0.006,0.0781 c 0.008,0.132 0.017,0.2687 0.026,0.4109 l 0.006,0.091 c 0.007,0.127 0.015,0.2571 0.023,0.3911 l 0.005,0.082 c 0.009,0.1508 0.017,0.3078 0.026,0.4687 l 0.006,0.1243 c 0.008,0.1449 0.015,0.2929 0.022,0.4449 l 0.004,0.082 c 0.008,0.1738 0.016,0.352 0.024,0.534 l 0.003,0.0551 10e-4,0.0461 c 0.012,0.2797 0.023,0.5687 0.033,0.866 l 0.003,0.0859"
         style="display:inline;fill:#414244;fill-opacity:1;fill-rule:nonzero;stroke:none;stroke-width:0.1"
         id="path1062-0" />
      <path
         d="m 800.50447,52.390705 c 4.709,-2.7191 8.181,-6.3101 10.321,-10.673 3.685,-7.5168 2.048,-25.6559 1.977,-25.95 l -0.752,0.6391 c 0.016,0.0691 1.617,18.0738 -1.838,25.1148 -1.984,4.0461 -5.253,7.4043 -9.711,9.9781 -4.482,2.5871 -7.819,3.027 -9.918,1.309 -3.617,-2.9648 -2.382,-22.5699 -2.369,-22.6539 l -0.76,0.2641 c -0.057,0.366 -1.32,20.1367 2.529,23.2976 2.254,1.85 5.793,1.4032 10.521,-1.3258"
         style="display:inline;fill:#2b2b2b;fill-opacity:1;fill-rule:nonzero;stroke:none;stroke-width:0.1"
         id="path1064-9" />
      <path
         d="m 821.92147,72.895805 -0.069,0.0391 -0.089,0.0457 -0.056,0.0262 -0.015,0.007 -0.017,0.0078 -0.087,0.0371 -0.088,0.0328 -0.014,0.0051 -0.012,0.0031 -0.061,0.02 -0.089,0.025 -0.041,0.0089 -0.019,0.0039 -0.029,0.0071 -0.095,0.0152 -0.055,0.0059 -0.02,0.0019 -0.021,0.002 -0.102,0.0043 -0.042,-0.0024 -0.034,-0.0019 -0.036,-0.002 -0.124,-0.0179 h -0.002 l -0.022,-0.0059 -0.127,-0.0352 -0.009,-0.005 -0.166,-0.0758 -28.857,-16.7699 0.165,0.0757 0.137,0.0403 0.022,0.0058 0.162,0.02 0.034,0.0019 0.165,-0.0039 0.02,-0.002 0.179,-0.0281 0.019,-0.0039 0.191,-0.0539 0.012,-0.0031 0.206,-0.0828 0.014,-0.0071 0.215,-0.1109 14.606,-8.4332 28.857,16.7699 -14.606,8.4332"
         style="display:inline;fill:#f1f2f2;fill-opacity:1;fill-rule:nonzero;stroke:none;stroke-width:0.1"
         id="path1066-2" />
      <path
         d="m 812.31547,47.238805 28.858,16.7699 c -0.138,-0.0801 -0.283,-0.1469 -0.432,-0.2051 l -0.058,-0.023 c -0.134,-0.05 -0.274,-0.0879 -0.417,-0.1199 l -0.075,-0.0211 c -0.159,-0.0321 -0.323,-0.05 -0.491,-0.061 l -0.099,-0.0039 c -0.163,-0.0058 -0.328,-0.0039 -0.498,0.0102 l -0.065,0.0066 c -0.175,0.0172 -0.354,0.0442 -0.536,0.0832 l -0.061,0.0129 c -0.187,0.043 -0.378,0.0961 -0.573,0.161 l -0.038,0.0132 c -0.203,0.07 -0.409,0.152 -0.618,0.2481 l -0.042,0.0199 c -0.212,0.0981 -0.426,0.2078 -0.643,0.3328 l -28.857,-16.7699 0.206,-0.1148 0.267,-0.1383 0.169,-0.0797 0.043,-0.0203 0.051,-0.025 0.261,-0.1098 0.263,-0.0992 0.043,-0.0141 0.038,-0.0129 0.182,-0.0589 0.267,-0.0739 0.124,-0.0269 0.06,-0.0141 0.091,-0.0199 c 0.093,-0.018 0.186,-0.0332 0.277,-0.0461 l 0.169,-0.0172 0.064,-0.007 0.063,-0.0059 c 0.105,-0.007 0.209,-0.0109 0.311,-0.0101 l 0.125,0.0062 0.099,0.0039 0.11,0.0059 c 0.127,0.0113 0.252,0.0293 0.374,0.0543 l 0.006,8e-4 0.075,0.021 c 0.129,0.029 0.256,0.0602 0.378,0.1032 l 0.04,0.0168 0.058,0.023 c 0.149,0.0578 0.294,0.125 0.431,0.2051"
         style="display:inline;fill:#e6e7e8;fill-opacity:1;fill-rule:nonzero;stroke:none;stroke-width:0.1"
         id="path1068-5" />
      <path
         d="m 819.35847,66.815705 -3.293,-19.9601 c -0.024,-0.1828 -0.056,-0.359 -0.093,-0.5289 l -0.009,-0.0449 c -0.035,-0.1559 -0.077,-0.3039 -0.122,-0.4493 l -0.042,-0.1257 c -0.035,-0.1039 -0.074,-0.2039 -0.115,-0.3012 l -0.064,-0.1527 -0.104,-0.2032 -0.132,-0.2398 -0.138,-0.2063 -0.107,-0.1488 -0.168,-0.1949 -0.112,-0.1231 -0.206,-0.1832 -0.104,-0.0898 c -0.107,-0.082 -0.218,-0.1582 -0.334,-0.2262 l -0.004,-0.0019 h 0.001 -0.001 l 28.858,16.7699 c 0.117,0.068 0.229,0.1453 0.337,0.2281 l 0.104,0.0891 0.206,0.184 0.112,0.123 0.168,0.1949 0.107,0.1489 0.103,0.1429 0.035,0.0633 0.132,0.2399 0.077,0.1378 0.027,0.0661 0.064,0.1511 0.071,0.166 0.045,0.136 0.042,0.1262 0.031,0.0937 c 0.031,0.1082 0.06,0.2191 0.086,0.3332 l 0.004,0.0219 0.01,0.0449 0.051,0.2563 c 0.015,0.0886 0.029,0.1796 0.042,0.2718 l 3.293,19.961 -28.858,-16.77"
         style="display:inline;fill:#d1d3d4;fill-opacity:1;fill-rule:nonzero;stroke:none;stroke-width:0.1"
         id="path1070-4" />
      <path
         d="m 848.21547,83.585705 -0.095,0.068 -0.093,0.061 -0.09,0.056 -0.021,0.012 -0.068,0.038 -0.088,0.045 -0.056,0.027 -0.014,0.006 -0.017,0.008 -0.086,0.037 -0.087,0.033 -0.015,0.004 -0.013,0.005 -0.06,0.019 -0.089,0.025 -0.041,0.009 -0.02,0.004 -0.031,0.007 -0.093,0.015 -0.055,0.006 -0.022,0.002 -0.021,0.003 -0.104,0.003 -0.041,-0.002 -0.033,-0.001 -0.038,-0.002 -0.126,-0.018 -0.001,-0.001 -0.018,-0.005 -0.134,-0.036 -0.008,-0.004 -0.168,-0.078 -28.858,-16.7699 0.168,0.0778 0.143,0.0402 0.018,0.0051 0.164,0.0207 0.034,0.0012 0.166,-0.0039 0.022,-0.002 0.178,-0.0273 0.02,-0.0047 0.191,-0.0532 0.013,-0.005 0.205,-0.0821 0.013,-0.0058 0.213,-0.1102 c 0.099,-0.057 0.199,-0.123 0.299,-0.1969 l 28.858,16.77 h -10e-4"
         style="display:inline;fill:#f1f2f2;fill-opacity:1;fill-rule:nonzero;stroke:none;stroke-width:0.1"
         id="path1072-0" />
      <path
         d="m 819.05947,67.012605 c 0.099,-0.057 0.199,-0.123 0.299,-0.1969 l -3.293,-19.9601 c -0.462,-3.4809 -3.253,-4.659 -6.54,-2.7617 l -18.642,10.7629 c 0.004,1.4058 0.98,1.9621 2.181,1.2691 l 14.606,-8.4332 c 3.259,-1.8809 6.025,-0.7129 6.484,2.7371 l 2.746,15.6707 c 0.155,1.1633 1.09,1.5281 2.159,0.9121"
         style="display:inline;fill:#d1d3d4;fill-opacity:1;fill-rule:nonzero;stroke:none;stroke-width:0.1"
         id="path1074-5" />
    </g>
  </g>
  <g
     inkscape:groupmode="layer"
     id="layer4"
     inkscape:label="plant">
    <g
       id="g16259"
       transform="matrix(0.03527778,0,0,-0.03527778,-188.53161,300.33058)"
       style="display:inline;mix-blend-mode:normal">
      <path
         d="m 7274.8305,1320.4947 h -188.91 l 24.15,-140.38 0.07,-0.37 0.16,-0.97 h 0.08 c 2.04,-9.88 9.37,-18.87 21.26,-25.74 13.22,-7.63 30.66,-11.84 49.1,-11.84 18.28,0 35.53,4.15 48.56,11.68 12.3,7.1 19.71,16.53 21.3,26.88 h 0.01 l 24.22,140.74"
         style="display:inline;fill:#e6e7e8;fill-opacity:1;fill-rule:nonzero;stroke:none"
         id="path1242-0" />
      <path
         d="m 7180.8805,1268.4447 c -24.78,0 -48.22,5.65 -65.99,15.91 -19,10.97 -29.46,25.96 -29.46,42.21 0,16.12 10.33,30.96 29.07,41.78 17.52,10.12 40.7,15.69 65.27,15.69 24.79,0 48.23,-5.65 66,-15.91 18.99,-10.97 29.46,-25.96 29.46,-42.2 0,-16.13 -10.33,-30.96 -29.07,-41.79 -17.52,-10.11 -40.71,-15.69 -65.28,-15.69"
         style="display:inline;fill:#a38671;fill-opacity:1;fill-rule:nonzero;stroke:none"
         id="path1244-8" />
      <path
         d="m 7266.1105,1315.2647 c -3.34,-9.16 -11.15,-17.89 -23.51,-25 -34.16,-19.74 -89.77,-19.6 -124.14,0.22 -12.58,7.31 -20.6,16.19 -23.94,25.49 -5.97,16.2 1.85,33.74 23.51,46.24 34.23,19.74 89.77,19.6 124.22,-0.21 22.01,-12.72 29.97,-30.47 23.86,-46.74"
         style="display:inline;fill:#8e725e;fill-opacity:1;fill-rule:nonzero;stroke:none"
         id="path1246-5" />
      <path
         d="m 7266.1105,1315.2647 c -3.34,-9.16 -11.15,-17.89 -23.51,-25 -34.16,-19.74 -89.77,-19.6 -124.14,0.22 -12.58,7.31 -20.6,16.19 -23.94,25.49 3.41,9.17 11.29,17.83 23.51,24.93 34.23,19.75 89.77,19.6 124.22,-0.21 12.5,-7.24 20.52,-16.12 23.86,-25.43"
         style="display:inline;fill:#5e4534;fill-opacity:1;fill-rule:nonzero;stroke:none"
         id="path1248-0" />
      <path
         d="m 7297.9305,1672.0547 c 0,0 -2.95,4.85 -9.7,9.66 -6.5,4.49 -18.15,8.28 -30.51,3.85 -1.97,-10.02 -2.45,-17.67 -2.52,-22.88 -0.09,-2.59 -0.17,-4.56 -0.12,-5.93 -0.02,-1.34 -0.03,-2.06 -0.03,-2.06 -1.88,6.16 -6.09,14.36 -10.78,24.25 -3.36,-2.07 -6.38,-4.45 -9.61,-7.11 -2.81,-2.44 -6.36,-5.98 -8.35,-7.9 -4.65,-4.57 -9.44,-9.73 -14.29,-15.46 9.95,-10.02 18.78,-18.7 24.55,-25.06 5.86,-6.32 9.08,-10.21 9.08,-10.21 -9.34,8.2 -24.98,17.17 -41.34,25.17 -4.07,-5.79 -8.57,-12.54 -12.23,-18.73 11.89,-8.93 27.22,-20.85 35.5,-30.68 2.87,-2.77 -16.06,8.37 -42.11,19.02 -3.07,-5.73 -5.8,-10.75 -8.52,-16.15 13.79,-9.08 27.88,-19.59 38.42,-30.24 -1.32,0.73 -18.88,11.16 -42.63,21.49 -2.9,-5.96 -5.78,-12.26 -8.51,-18.67 26.5,-19.37 42.56,-37.96 42.56,-37.96 -10.55,8.75 -29.03,17.89 -47.63,25.71 l -1.12,-2.91 c -2.72,-6.99 -5.26,-13.95 -7.49,-21.14 10.92,-7.48 36.44,-25.42 48.82,-39.3 4.51,-2.74 -19.04,9.53 -53.85,22.72 -2.29,-8.99 -4.36,-17.67 -5.96,-26.3 12.4,-8.05 24.83,-16.8 34.79,-25.37 -1.24,0.56 -15.92,7.71 -36.38,15.41 -0.72,-5.02 -1.34,-9.92 -1.83,-14.7 -0.36,-4.92 -0.55,-9.76 -0.65,-14.41 11.07,-7.17 20.05,-13.68 26.27,-18.37 6.28,-4.73 9.91,-7.69 9.91,-7.69 -8.94,5.25 -22.13,10.2 -36.27,14.41 0.55,-11.33 1.93,-21.71 3.93,-30.72 13.06,-4.48 22.49,-8.39 28.08,-10.83 2.2,-0.76 3.13,-1.37 0,0 -7.28,2.69 -16.96,4.24 -26.46,4.97 3.07,-9.71 8.57,-17.82 14.72,-23.79 6.28,-5.99 12.48,-10 15.93,-12.02 -3.45,-16.43 5.79,-44.7 6.07,-46.1 l 5.37,0.25 c -0.02,0.08 -0.57,2.01 -1.43,5.07 -0.83,3.07 -1.89,7.3 -2.87,12.01 -2.1,9.45 -3.3,20.78 -1.7,28.7 3.93,2.23 11.21,7.02 19.34,13.31 4.2,3.11 8.48,6.61 12.39,10.44 3.88,3.83 7.37,7.98 10.68,12.64 -12.79,3.44 -31.15,8.04 -43.91,7.36 -3.4,-0.4 -2.33,-0.09 0,0 8.56,1.04 25.22,2.06 48.64,-0.15 3.41,5.96 7.57,12.52 11.32,19.48 -20.06,4.68 -41.03,8.34 -55.04,7.03 0,0 6.58,1.74 17.48,3.15 10.87,1.44 26.1,2.39 43.73,1.3 3.21,5.76 5.97,11.69 9.09,18.04 -28.39,8.74 -52.97,12.57 -54.56,12.78 18.25,1.91 40.33,0.23 59.55,-2.53 2.16,4.76 4.35,9.6 6.59,14.54 -29.12,9.92 -41.93,13.16 -47.47,13.96 -1.34,-0.15 37.71,0.6 52.79,-1.4 1.61,4 3.23,8.02 4.88,12.09 -22.81,8.77 -49.68,17.65 -67,18.34 0,0 8.13,1 21.27,1.09 13.14,0.12 31.2,-0.83 51.3,-4.28 2.01,5.52 3.87,11.04 5.54,16.48 -30.71,11.95 -58.92,18.02 -60.67,18.41 19.94,0.77 44.1,-2.05 64.51,-5.31 1.88,6.78 3.56,13.67 4.76,19.44 -26.41,9.22 -38.36,12.37 -43.73,13.23 2.67,-0.01 32.45,0.56 46.1,-1.11 0.4,2.36 0.8,4.69 1.18,6.98 -20.74,8.07 -43.81,15.69 -59.13,16.27 0,0 6.62,0.88 17.69,0.85 11.03,-0.01 26.26,-1.03 43.27,-4.5 0.48,4.08 0.93,8.03 1.38,11.86 0.39,3.74 0.66,7.45 0.82,11.11 -19.09,7.17 -39.65,12.36 -50.62,9.86 0,0 4.99,3.11 13.88,5.61 4.4,1.13 9.87,2.65 15.97,2.08 6.05,-0.41 12.7,-2.28 19.06,-6.49 -0.72,3 -1.8,6.35 -2.44,10.5 -0.57,3.93 -0.7,8.5 -0.29,12.55 0.28,4.26 1.1,7.79 1.62,10.57 0.58,2.76 0.92,4.42 0.92,4.42"
         style="display:inline;fill:#a5c63b;fill-opacity:1;fill-rule:nonzero;stroke:none"
         id="path1250-6" />
      <path
         d="m 7030.1805,1737.6947 c 0,0 -3.13,-5.17 -6.26,-12.43 -3.16,-7.33 -6.2,-16.33 -6.55,-25.42 7.98,-1.44 14.56,-3.68 18.76,-5.8 4.29,-2.06 6.61,-3.65 6.61,-3.65 -6.12,1.66 -15.07,1.18 -25.22,-0.8 0.11,-5.38 0.41,-11.12 1.03,-17.03 0.55,-5.98 1.15,-12.51 2.13,-19.09 28.19,2.47 48.99,-1.53 48.99,-1.53 -12.71,0.09 -30.14,-4.52 -47.34,-10.46 1.11,-6.82 2.33,-14.28 3.76,-21.81 14.91,0.96 34.45,1.09 47.47,-2.03 4.06,-0.51 -17.84,-3.5 -44.63,-12.08 1.41,-6.53 2.98,-13.52 4.74,-20.6 16.93,0.37 33.72,3.32 48.7,0 -0.75,-0.05 -6.22,-0.37 -14.61,-1.55 -8.46,-1.23 -19.81,-3.47 -32.33,-6.72 0.37,-1.59 0.43,-4.35 0.82,-6.46 0.29,-2.82 0.57,-5.67 0.86,-8.55 8.1,-0.98 15.64,-2.3 22.36,-4.03 6.71,-1.82 12.62,-3.74 17.51,-5.5 9.8,-3.63 15.52,-6.45 15.52,-6.45 -13.44,3.74 -34.1,4.06 -54.22,2.61 l 0.36,-3.61 c 0.8,-8.59 2.18,-19.15 4.4,-29.88 13.46,-1.94 45.48,-5.75 63.53,-11.97 5.29,-0.02 -21.18,-2.02 -57.63,-9.57 0.78,-2.56 1.56,-5.1 2.33,-7.62 0.64,-1.88 1.27,-3.75 1.9,-5.6 1.3,-3.71 2.67,-7.36 4.09,-10.96 14.69,-1.23 29.6,-3.83 42.46,-8.13 -1.37,0.04 -17.8,0.72 -39.55,-1.31 1.71,-5.4 3.38,-10.69 5.01,-15.86 2.16,-6.07 3.92,-11.37 6.56,-17.36 27.07,-6.05 46.1,-9.61 46.1,-9.61 -10.46,0.17 -24.54,-1.9 -39.06,-5.16 7.95,-14.71 16.82,-23.88 24.71,-31.2 13.17,4.11 23.18,6.33 29.21,7.5 2.25,0.65 3.39,0.66 0,0 -7.52,-1.99 -16.18,-6.59 -24.17,-11.79 4.33,-3.55 8.71,-5.72 13.29,-7.78 4.41,-1.79 8.89,-3.13 13.16,-4.17 8.22,-1.97 15.94,-2.91 19.88,-3.43 3.12,-8.74 7.66,-20.46 12.97,-30.41 2.57,-4.9 5.53,-8.97 7.85,-11.71 2.43,-2.68 4.19,-4.08 4.43,-4.36 l 4.21,3.37 -1.04,0.91 c -0.62,0.6 -1.62,1.33 -2.69,2.53 -2.12,2.41 -4.97,6.11 -7.53,10.93 -5.19,9.52 -10.16,22.28 -13.33,31.18 2.32,4.15 6.14,13.11 8.38,24.76 2.29,11.69 2.82,25.71 1.79,37.54 -12.38,-4.84 -30.03,-11.85 -39.57,-20.42 -2.38,-2.5 -1.76,-1.54 0,0 5.89,6.3 18.58,17.65 39.11,29.07 -0.42,3.5 0.24,6.26 0.11,9.33 0.36,3.55 0.43,6.39 0.63,10.4 -20.05,-4.91 -40.53,-10.94 -51.9,-19.55 0,0 1.19,1.32 3.48,3.47 2.27,2.15 5.67,5.06 10.29,8.44 9.1,6.77 22.37,14.37 38.61,21.75 0.02,1.91 0.04,3.84 0.06,5.79 -0.06,2.26 -0.11,4.53 -0.17,6.83 -0.1,2.31 -0.2,4.63 -0.3,6.98 -0.3,2.58 -0.61,5.17 -0.93,7.79 -28.94,-6.58 -52.03,-15.55 -53.6,-16.02 14.65,11.27 33.97,23.04 51.32,32.93 -0.45,3.1 -0.91,6.22 -1.36,9.37 -0.44,2.75 -0.88,5.52 -1.33,8.31 -29.96,-6.86 -42.48,-11.05 -47.53,-13.47 -0.5,-0.52 7.2,5.19 16.83,11.41 9.44,6.5 21.87,12.1 28.85,14.66 -0.43,4.41 -0.86,8.84 -1.29,13.32 -24.28,-2.5 -52.32,-6.81 -67.89,-15.13 0,0 6.67,5.33 18.29,12.07 11.6,6.8 28.05,15.32 47.11,23.61 -1.13,8.09 -2.93,17.22 -5.55,26.45 -16,-3.95 -30.55,-9.26 -41.42,-13.22 -10.79,-4.11 -17.98,-6.85 -18.82,-7.17 8.04,6.29 17.21,13.11 26.12,20.42 4.53,3.55 9,7.56 13.54,10.86 4.58,3.12 9.14,6.09 13.54,8.86 -3.18,7.25 -6.46,14.21 -9.92,21.2 -26.08,-10.1 -37.19,-15.57 -41.8,-18.53 2,1.77 23.79,23.47 34.68,32.35 -1.56,2.79 -3.11,5.55 -4.63,8.25 -20.76,-8.17 -42.6,-18.51 -54.32,-28.82 0,0 17.42,21.51 45.05,43.96 -6.39,9.92 -13.5,19.04 -20.24,26.8 -16.37,-12.81 -32.97,-26.81 -37.85,-37.21 0,0 0.67,6.13 3.86,15.81 3.07,9.64 8.4,22.87 17.61,37.52 -5.1,4.16 -10.67,7.2 -16.1,9.36 -5.54,2.13 -11.17,3.28 -15.93,3.92 -9.59,1.27 -16.36,0.4 -16.36,0.4"
         style="display:inline;fill:#8eb021;fill-opacity:1;fill-rule:nonzero;stroke:none"
         id="path1252-4" />
      <path
         d="m 7392.9005,1687.1347 c 0,0 -23.53,1.32 -39.17,-9.9 3.15,-7.73 4.97,-14.49 6.09,-19.36 1.09,-4.82 1.33,-7.65 1.33,-7.65 -2.58,5.85 -8.58,12.77 -16.19,20.06 -4.33,-3.97 -8.78,-8.52 -13.32,-13.61 -2.27,-2.55 -4.56,-5.23 -6.87,-8.04 -2.3,-2.78 -4.71,-5.98 -6.78,-8.18 21.48,-17.79 33.05,-35.29 33.05,-35.29 -8.74,9.11 -24.18,18.35 -40.41,26.56 -2.06,-2.55 -4.1,-5.18 -6.12,-7.87 -1,-1.35 -2.01,-2.72 -3.03,-4.09 -1.18,-1.7 -2.38,-3.41 -3.59,-5.14 10.75,-10.53 24.62,-24.43 31.65,-35.6 2.53,-3.17 -15.21,9.83 -40.26,22.63 -1.94,-3.09 -3.91,-6.22 -5.91,-9.39 -1.72,-2.85 -3.47,-5.74 -5.23,-8.66 12.94,-10.23 26.12,-22.39 35.36,-34.29 -1.22,0.94 -17.69,12.89 -40.55,25.1 -3.5,-5.58 -6.75,-11.41 -10.06,-16.99 11.97,-10.87 20.95,-21.95 26.83,-30.45 2.97,-4.27 5.12,-7.81 6.45,-10.22 1.31,-2.48 2.04,-3.85 2.04,-3.85 -7.98,11.08 -24.65,23.56 -41.47,34.68 l -1.36,-2.33 c -1.81,-2.5 -3.56,-5.01 -5.23,-7.54 -1.76,-2.61 -2.92,-4.79 -5.58,-8.37 8.03,-10.5 26.65,-35.96 33.21,-53.91 3.33,-4.11 -14.82,15.31 -43.82,38.64 -5.38,-8.08 -10.41,-16.06 -15.08,-23.92 8.78,-11.85 17.14,-24.6 22.98,-36.64 -0.94,1 -11.87,13.2 -28.22,27.7 -5.13,-8.92 -9.81,-18.21 -13.85,-27.05 14.48,-22.25 21.67,-39.67 21.67,-39.67 -5.58,8.78 -15.46,18.8 -26.63,28.54 -4.49,-10.74 -8.1,-20.78 -10.62,-30.08 9.38,-9.99 15.62,-18.01 19.21,-22.93 1.52,-1.76 2.01,-2.77 0,0 -4.95,5.94 -12.77,11.86 -20.8,17.01 -0.6,-2.5 -1.01,-5 -1.26,-7.49 -0.15,-2.34 0.2,-4.18 0.41,-6.37 0.21,-4.49 0.63,-9.15 1.15,-13.62 1.06,-8.91 3.42,-16.32 5.03,-20.17 -4.22,-4.58 -8.14,-11.59 -9.1,-19.14 -0.78,-8.18 0.87,-16.08 2.33,-21.78 1.51,-5.83 2.57,-9.91 2.71,-10.43 l 5.36,0.29 c -0.03,0.13 -1.06,4.17 -2.56,10.11 -1.44,5.78 -3.17,12.71 -2.52,20.45 0.77,7.04 4.49,13.55 8.4,17.61 4.61,0.05 13.65,-0.37 24.84,1.26 2.9,0.6 5.79,1.03 9.04,2.24 1.62,0.58 3.28,1.24 4.96,1.97 1.66,0.71 3.04,1.05 4.58,1.66 6.01,2.23 12.03,5.13 17.67,8.9 -9.69,9.11 -24.04,21.46 -35.97,26.27 -3.28,1.06 -2.15,0.91 0,0 8.29,-2.69 24.03,-8.67 44.63,-20.27 6.97,5.16 14.17,10.99 21.47,17.44 -16.72,12.03 -34.8,23.31 -48.45,27.24 0,0 27.55,-2.94 60.27,-16.49 5.97,5.48 11.97,11.34 17.97,17.56 -23.93,17.6 -46.07,29.03 -47.54,29.81 18.4,-3.64 39.28,-11.62 57.15,-19.75 4.31,4.62 8.58,9.42 12.87,14.36 -24.83,18.16 -36.16,24.99 -41.29,27.31 -0.72,0.06 8.62,-2.25 19.95,-5.27 5.66,-1.51 11.81,-3.2 17.46,-4.86 5.68,-1.58 11.13,-2.56 14.86,-3.73 3.77,5.05 7.48,10.21 11.13,15.49 -20.5,13.28 -45.44,26.91 -62.37,31.37 0,0 8.32,-0.85 21.81,-2.67 13.18,-1.72 31.68,-4.27 51.94,-9.15 3.85,6.98 6.72,13.75 9.78,20.53 -29.64,14.39 -57.52,22.44 -59.2,23.06 20.51,-0.27 44.8,-3.77 65.23,-7.88 1.35,3.76 2.69,7.48 4,11.15 1.1,3.26 2.19,6.47 3.26,9.64 -25.63,11.23 -37.38,15.17 -42.75,16.33 2.75,-0.08 33.17,-0.82 46.74,-3.46 0.81,2.85 1.61,5.67 2.39,8.43 -20.21,9.45 -42.55,18.39 -58.02,19.93 0,0 6.87,0.5 18,0.34 11.17,-0.14 26.87,-0.7 44.66,-2.89 1.31,5.67 2.72,11.68 3.44,16.5 0.62,4.63 1.09,9.14 1.42,13.5 -20.14,4.79 -41.46,7.66 -52.66,4.02 0,0 5.07,3.75 14.28,7.67 9.21,3.9 22.49,7.79 38.96,7.91 0.34,22.86 -16.18,45.17 -16.18,45.17"
         style="display:inline;fill:#8eb021;fill-opacity:1;fill-rule:nonzero;stroke:none"
         id="path1254-6" />
      <path
         d="m 6830.2005,1348.5447 c 0,0 6.06,-1.02 12.98,-2.76 1.66,-0.45 3.43,-0.94 5.25,-1.44 1.86,-0.54 3.77,-1.1 5.71,-1.66 l 5.24,-1.46 c 1.72,-0.42 3.64,-0.8 5.27,-0.98 -1.29,7.11 -0.02,12.99 1,17.06 0.5,2.06 1.09,3.63 1.57,4.63 0.49,1.02 0.76,1.56 0.76,1.56 -1.02,-5.69 0.85,-14.52 4.3,-23.95 7.68,-0.52 17.11,-0.77 27.69,-0.52 -1.79,13.87 -1.5,25.76 -0.93,34.28 0.68,8.52 1.61,13.53 1.61,13.53 -0.17,-12.46 3.61,-30.08 8.88,-47.5 5.94,0.36 13.51,1.41 19.84,2.12 -0.82,14.78 -1.6,33.9 1.29,46.5 0.45,3.94 2.88,-17.89 10.33,-45.04 2.71,0.43 5.04,0.54 7.56,0.85 2.55,0.34 4.96,0.58 7.2,0.69 -0.45,8.16 -0.51,16.59 0,24.84 0.43,8.09 1.49,15.99 3.32,23.22 -0.07,-1.52 -0.05,-21.94 3.76,-47.51 4.5,0.25 8.35,0.19 11.83,0.11 1.54,15.73 5.51,29.39 10.14,38.17 4.29,9 7.74,14.11 7.74,14.11 -5.68,-12.51 -8.78,-32.82 -10.76,-52.88 l 2.23,-0.23 c 2.71,-0.23 5.39,-0.46 8.05,-0.69 2.64,-0.41 5.27,-0.76 7.89,-1.03 2.27,6.02 6.43,16.48 11.8,26.6 5.34,10.19 12,20.51 18.59,27.19 2.4,4.71 -8.37,-19.63 -18.18,-55.54 3.23,-0.33 6.43,-0.9 9.6,-1.54 3.18,-0.64 6.38,-0.91 9.54,-1.62 7.61,12.22 16.51,24.18 25.95,33.33 -0.73,-1.16 -9.42,-15.05 -18.72,-34.81 3.69,-0.55 7.34,-1.45 10.97,-2.21 3.63,-0.78 7.26,-1.25 10.82,-2.13 8.69,9.45 16.96,16.67 23.09,21.5 6.15,4.88 9.99,7.17 9.99,7.17 -7.66,-6.68 -16.06,-18.04 -24.02,-30.52 4.49,-0.84 8.8,-1.65 12.93,-2.43 4.21,-0.62 8.35,-1.29 12.37,-1.94 9.1,10.14 16.56,16.94 21.18,20.85 1.65,1.63 2.6,2.19 0,0 -5.58,-5.32 -11.13,-13.4 -16.04,-21.57 8.72,-0.97 17.95,0.75 26,3.08 7.77,2.1 14.46,4.84 18.07,6.45 5.59,-6.07 15.2,-11.81 23.91,-16.28 4.25,-2.07 8.14,-4.17 10.75,-6.18 2.65,-1.97 3.8,-3.73 4.13,-3.93 l 4.17,3.52 c -0.16,0.01 -1.32,1.81 -4.12,3.96 -2.66,2.16 -7.1,4.77 -11.5,6.91 -8.4,4.18 -18.64,10.36 -24.13,16.4 0.32,4.39 0.85,13.97 -1.22,24.49 -2.03,10.54 -6.14,22.85 -14.26,33.57 -8.49,-10.3 -19.52,-25.7 -23.74,-37.68 -0.94,-3.25 -0.81,-2.16 0,0 2.36,8.21 7.38,24.1 16.85,45.76 -5.8,6.62 -13.16,12.94 -21.11,19.53 -8.8,-18.62 -16.7,-38.51 -19.02,-52.35 0,0 0.12,6.77 0.84,17.93 0.65,11.03 1.73,26.61 4.18,44.37 -7.22,4.65 -15.11,9.13 -23.64,13.16 -8.99,-28.24 -13.55,-52.63 -14,-54.29 -1.12,18.28 -0.79,40.51 -0.05,60.4 -6.52,2.54 -13.46,4.58 -20.48,6.73 -5.78,-30.24 -7.33,-43.4 -7.42,-49.01 0.19,-0.76 -1.15,8.92 -3.52,20.25 -2.29,11.38 -5.7,24.98 -7.01,32.73 -5.56,1.26 -11.27,1.69 -17.03,2.31 -2.32,-24.32 -3.1,-52.65 0.17,-69.45 0,0 -2.68,7.52 -6.71,20.19 -2.11,6.29 -4.19,14.07 -7.13,22.44 -2.96,8.38 -6.38,17.72 -9.71,27.7 -4.69,0.05 -8.77,-0.58 -13.06,-1.01 -4.28,-0.47 -8.44,-1.06 -12.17,-1.94 5.17,-32.55 13.7,-59.99 13.95,-61.87 -9.89,17.13 -21.75,39.06 -31.11,57.6 -4.24,-1.23 -8.26,-2.57 -11.88,-4.03 -3.7,-1.43 -7.5,-2.86 -10.72,-4.38 8.76,-26.55 13.49,-37.97 16.04,-42.76 -0.77,1.07 -5.88,7.4 -11.98,14.84 -6.15,7.46 -13.07,15.99 -16.93,21.75 -2.42,-1.31 -4.81,-2.62 -7.16,-3.89 7.23,-21.1 16.49,-43.4 25.64,-55.74 0,0 -4.8,4.66 -12.01,13 -7.35,8.28 -16.24,20.6 -26.62,35.04 -9.53,-5.74 -18.4,-12.27 -25.96,-19.1 12.94,-16.39 25.96,-33.18 35.15,-38.98 0,0 -5.34,1.3 -14.07,4.85 -8.78,3.57 -21.06,9.16 -36.61,17.09 -3.95,-5.49 -6.58,-11.65 -7.94,-17.59 -1.34,-6.34 -1.51,-11.72 -0.81,-16.69 0.75,-5.02 2.14,-8.82 3.29,-11.37 1.17,-2.54 2.07,-3.88 2.07,-3.88"
         style="display:inline;fill:#a5c63b;fill-opacity:1;fill-rule:nonzero;stroke:none"
         id="path1256-2" />
      <path
         d="m 7396.1905,1247.2547 c 0,0 5.21,1.65 11.08,6.31 2.98,2.35 5.99,5.47 8.04,9.43 2.2,3.99 3.7,8.82 3.53,13.7 -8.25,2.47 -14.68,2.86 -18.79,3.68 -4.21,0.35 -6.38,0.7 -6.38,0.7 2.77,0.45 6.23,1.46 10.25,2.8 4.01,1.23 8.61,2.64 13.59,4.17 -2.41,11.57 -8.35,22.85 -13.26,31.68 -22.1,-16.71 -38.54,-26.24 -38.54,-26.24 9.71,7.22 22.29,20.03 34.44,33.56 -2.45,4.11 -4.91,8.03 -8.11,12.33 -11.39,-9.12 -26.23,-20.86 -36.73,-26.8 -3.2,-2.15 12.55,13.02 30.73,34.44 -3.04,3.55 -6.46,7.2 -9.98,10.79 -12.24,-10.95 -25.48,-22.18 -36.9,-30.82 0.97,1.14 14.58,16.18 30.54,36.55 -4.12,3.81 -9.02,7.49 -14.29,11.08 -11.57,-11.34 -21.98,-20.7 -29.33,-27.43 -7.28,-6.61 -11.58,-10.51 -11.58,-10.51 8.83,9.97 20.3,27.09 30.68,44.39 l -2.53,1.4 c -5.92,3.46 -12.64,6.31 -19.25,8.81 -7.8,-10.3 -25.8,-36.23 -36.12,-49.87 -2.26,-4.68 7.83,19.61 20.12,54.74 -2.13,0.49 -4.25,0.98 -6.36,1.47 -2.19,0.37 -4.46,0.61 -6.66,0.87 -4.43,0.49 -8.78,0.85 -13.02,1.08 -6.04,-13.15 -11.46,-27.36 -16.65,-38.91 0.24,1.33 3.79,17.21 7.52,38.76 -4.42,-0.34 -8.7,-0.81 -12.82,-1.4 -4.22,-0.52 -7.47,-1.7 -11.03,-2.65 -3.34,-12.47 -6.36,-22.75 -8.5,-29.92 -2.16,-7.21 -3.41,-11.36 -3.41,-11.36 1.95,9.84 2.87,23.81 3.34,38.56 -7.59,-3.1 -13.69,-6.53 -19.62,-10.43 -0.86,-13.58 -1.93,-23.47 -2.63,-29.35 -0.15,-2.29 -0.42,-3.32 0,0 0.59,7.58 0.01,17.36 -1.1,26.83 -1.26,-1.06 -3.77,-2.58 -5.46,-4.09 -1.82,-1.54 -3.44,-3.19 -4.87,-4.9 -4.7,-4.12 -7.82,-8.72 -9.48,-12.8 -1.48,-8.01 -0.24,-14.5 0.57,-18.13 -5.61,-2.3 -10.21,-10 -11.27,-17.09 -0.21,-1.8 -0.29,-3.55 -0.31,-5.1 0.16,-1.58 0.31,-3.01 0.44,-4.24 0.74,-2.4 1.22,-4 1.3,-4.26 l 4.32,-1.9 c -0.02,0.05 -0.47,1.43 -1.18,3.61 -0.44,2.21 -0.74,5.29 -0.32,8.64 0.86,6.61 5,14 10.21,15.92 1.74,-1.1 4.43,-2.93 7.4,-5.04 1.44,-1.08 3,-2.24 4.64,-3.47 1.56,-1.29 2.4,-3.41 3.15,-5.21 0.73,-7.54 6.84,-14.6 14.37,-18.83 0.22,13.23 0.2,32.15 -2.39,44.47 -0.83,3.23 -0.45,2.25 0,0 2.12,-8.15 5.63,-24.2 8.25,-47.54 5.1,-2.14 9.45,-4.53 14.07,-6.49 0.1,20.59 -0.57,41.82 -3.78,55.1 0,0 2.29,-5.97 4.85,-16.21 2.66,-10.13 5.16,-24.97 5.62,-42.21 2.97,-1.59 6.15,-2.83 8.07,-4.47 5.73,29.13 7.48,53.79 7.43,55.46 2.29,-17.59 -0.01,-38.96 -3.88,-57.51 1.7,-1.14 3.5,-2.33 5.34,-3.21 10.72,28.8 14.49,41.39 15.66,46.77 -0.03,0.59 -0.82,-8.25 -2.92,-19.12 -2.02,-10.94 -5.44,-23.45 -7.94,-30.45 1.49,-0.7 3.12,-1.68 4.83,-2.69 11.63,21.49 24.67,46.59 28.54,63.18 0,0 -0.73,-7.85 -3.91,-20.05 -3.12,-12.19 -9.07,-28.57 -18.1,-46.62 2.47,-1.49 4.91,-2.5 7.66,-4.1 19.18,26.8 33,51.95 33.77,53.58 -5.79,-18.35 -16.9,-39.5 -27.42,-56.87 3.5,-1.97 7,-3.59 10.62,-5.33 17.31,21.97 24.41,32.05 27.19,36.64 -1.05,-2.32 -12.78,-28.58 -19.65,-40.22 1.55,-0.63 3.16,-1.33 4.79,-2.07 14.21,17.17 28.92,36.31 35.64,49.64 0,0 -8.57,-23.71 -26.3,-53.38 6.42,-2.28 11.84,-3.38 15.82,-3.23 6.69,7.65 13.06,15.75 17.92,23.3 4.75,7.55 8.08,14.39 9.11,19.27 0,0 0.68,-4.58 -0.81,-12.55 -1.54,-7.8 -5.59,-19.31 -17.5,-28.68 4.92,1.54 13.67,3.42 21.49,2.48 7.59,-0.74 14.15,-2.44 14.15,-2.44"
         style="display:inline;fill:#a5c63b;fill-opacity:1;fill-rule:nonzero;stroke:none"
         id="path1258-5" />
    </g>
  </g>
  <g
     inkscape:groupmode="layer"
     id="layer6"
     inkscape:label="machines">
    <g
       id="g15585"
       style="display:inline"
       transform="matrix(-0.03527778,0,0,-0.03527778,189.13115,395.32417)">
      <path
         d="m 3204.08,3889.2362 148.05,87.41 v -47.99 l -333.88,-196 v -14.11 l -10.53,6.39 v 47.16 l 196.95,117.14 h -0.59"
         style="fill:#bdc3c7;fill-opacity:1;fill-rule:nonzero;stroke:none"
         id="path1260" />
      <path
         d="m 3097.96,3712.3962 -19.55,10.98 v 15.93 l 19.55,-11.05 v -15.86"
         style="fill:#bdc3c7;fill-opacity:1;fill-rule:nonzero;stroke:none"
         id="path1262" />
      <path
         d="m 3123.53,3765.9862 19.55,-10.96 v 36.87 l -19.55,-11.47 v -14.44"
         style="fill:#bdc3c7;fill-opacity:1;fill-rule:nonzero;stroke:none"
         id="path1264" />
      <path
         d="m 3078.41,3739.3062 19.55,-11.05 188,111.08 -19.56,11 -187.99,-111.03"
         style="fill:#bdc3c7;fill-opacity:1;fill-rule:nonzero;stroke:none"
         id="path1266" />
      <path
         d="m 3353.78,4205.6162 11.89,-5.23 v -0.29 l -347.18,-203.91 -10.77,6.04 346.06,203.39"
         style="fill:#262626;fill-opacity:1;fill-rule:nonzero;stroke:none"
         id="path1268" />
      <path
         d="m 3007.72,4002.2262 1.17,0.69 10.58,-6.73 h -0.98 v -229.84 l -10.77,5.75 v 230.13"
         style="fill:#262626;fill-opacity:1;fill-rule:nonzero;stroke:none"
         id="path1270" />
      <path
         d="m 3018.25,3996.2562 347.42,204.13 v -229.71 l -347.42,-204.14 v 229.72"
         style="fill:#2b2b2b;fill-opacity:1;fill-rule:nonzero;stroke:none"
         id="path1272" />
      <path
         d="m 3353.63,3963.3362 v 213.84 l -320.34,-188.39 v -213.85 l 320.34,188.4"
         style="fill:#3498db;fill-opacity:1;fill-rule:nonzero;stroke:none"
         id="path1274" />
      <path
         d="m 3018.25,3718.5462 v 47.99 l 347.42,204.14 v -47.99 l -124.83,-73.35 v -36.66 l 45.12,26.66 v -15.88 l -188,-111.08 v 15.88 l 45.12,26.66 v 36.98 l -124.83,-73.35"
         style="fill:#ecf0f1;fill-opacity:1;fill-rule:nonzero;stroke:none"
         id="path1276" />
      <path
         d="m 3353.63,4160.5962 v 16.58 l -320.34,-188.39 v -16.59 l 320.34,188.4"
         style="fill:#ecf0f1;fill-opacity:1;fill-rule:nonzero;stroke:none"
         id="path1278" />
      <path
         d="m 3052.79,3988.8962 -9.16,4.47 -1.3,-2.41 9.17,-4.48 1.29,2.42"
         style="fill:#ffa800;fill-opacity:1;fill-rule:nonzero;stroke:none"
         id="path1280" />
      <path
         d="m 3042.33,3982.7362 9.17,15.26 1.29,-0.88 -9.16,-15.27 -1.3,0.89"
         style="fill:#ffa800;fill-opacity:1;fill-rule:nonzero;stroke:none"
         id="path1282" />
      <path
         d="m 3060.48,3992.0062 12.45,7.18 0.02,2.25 -12.45,-7.18 -0.02,-2.25"
         style="fill:#ffa800;fill-opacity:1;fill-rule:nonzero;stroke:none"
         id="path1284" />
      <path
         d="m 3244.42,3913.7562 94.17,54.37 v 164.58 l -94.17,-54.37 v -164.58"
         style="fill:#ecf0f1;fill-opacity:1;fill-rule:nonzero;stroke:none"
         id="path1286" />
      <path
         d="m 3049.44,3801.1862 48.41,27.95 v 164.58 l -48.41,-27.95 v -164.58"
         style="fill:#ecf0f1;fill-opacity:1;fill-rule:nonzero;stroke:none"
         id="path1288" />
      <path
         d="m 3111.5,3961.6962 118.43,68.38 v 39.9 l -118.43,-68.38 v -39.9"
         style="fill:#ecf0f1;fill-opacity:1;fill-rule:nonzero;stroke:none"
         id="path1290" />
      <path
         d="m 3111.5,3936.3462 116.98,67.54 v 6.65 l -116.98,-67.54 v -6.65"
         style="fill:#ecf0f1;fill-opacity:1;fill-rule:nonzero;stroke:none"
         id="path1292" />
      <path
         d="m 3111.5,3919.7162 116.98,67.55 v 6.65 l -116.98,-67.55 v -6.65"
         style="fill:#ecf0f1;fill-opacity:1;fill-rule:nonzero;stroke:none"
         id="path1294" />
      <path
         d="m 3111.5,3903.0962 116.98,67.54 v 6.65 l -116.98,-67.54 v -6.65"
         style="fill:#ecf0f1;fill-opacity:1;fill-rule:nonzero;stroke:none"
         id="path1296" />
      <path
         d="m 3111.5,3886.4762 116.98,67.54 v 6.65 l -116.98,-67.54 v -6.65"
         style="fill:#ecf0f1;fill-opacity:1;fill-rule:nonzero;stroke:none"
         id="path1298" />
      <path
         d="m 3111.5,3869.8462 116.98,67.54 v 6.65 l -116.98,-67.54 v -6.65"
         style="fill:#ecf0f1;fill-opacity:1;fill-rule:nonzero;stroke:none"
         id="path1300" />
      <path
         d="m 3111.5,3853.2262 116.98,67.54 v 6.65 l -116.98,-67.54 v -6.65"
         style="fill:#ecf0f1;fill-opacity:1;fill-rule:nonzero;stroke:none"
         id="path1302" />
      <path
         d="m 3111.5,3836.5962 116.98,67.55 v 6.65 l -116.98,-67.55 v -6.65"
         style="fill:#ecf0f1;fill-opacity:1;fill-rule:nonzero;stroke:none"
         id="path1304" />
      <path
         d="m 3220,3575.3362 325.18,187.74 -148.97,83.1 -325.18,-187.74 148.97,-83.1"
         style="fill:#bdc3c7;fill-opacity:1;fill-rule:nonzero;stroke:none"
         id="path1306" />
      <path
         d="m 3545.18,3770.8262 v -7.75 l -9.04,-1.57 -6.71,7.4 15.75,1.92"
         style="fill:#bcbec0;fill-opacity:1;fill-rule:nonzero;stroke:none"
         id="path1308" />
      <path
         d="m 3071.03,3666.1762 v -7.74 l 10.97,2.61 z"
         style="fill:#bcbec0;fill-opacity:1;fill-rule:nonzero;stroke:none"
         id="path1310" />
      <path
         d="m 3220,3583.0862 325.18,187.74 -148.97,83.1 -325.18,-187.75 148.97,-83.09"
         style="fill:#ecf0f1;fill-opacity:1;fill-rule:nonzero;stroke:none"
         id="path1312" />
      <path
         d="m 3069.53,3561.9362 c 24.09,-13.91 58.17,-16.79 76.11,-6.43 17.95,10.36 12.96,30.04 -11.13,43.95 -24.09,13.9 -58.17,16.78 -76.11,6.42 -17.94,-10.36 -12.96,-30.03 11.13,-43.94"
         style="fill:#bdc3c7;fill-opacity:1;fill-rule:nonzero;stroke:none"
         id="path1314" />
      <path
         d="m 3047.63,3601.0662 v -13.19 h 9.37 z"
         style="fill:#bcbec0;fill-opacity:1;fill-rule:nonzero;stroke:none"
         id="path1316" />
      <path
         d="m 3156.42,3582.3162 v -11.98 h -6.57 l -4.8,4.8 11.37,7.18"
         style="fill:#bcbec0;fill-opacity:1;fill-rule:nonzero;stroke:none"
         id="path1318" />
      <path
         d="m 3069.53,3573.4762 c 24.09,-13.91 58.17,-16.78 76.11,-6.42 17.95,10.36 12.96,30.03 -11.13,43.94 -24.09,13.91 -58.17,16.79 -76.11,6.43 -17.94,-10.36 -12.96,-30.04 11.13,-43.95"
         style="fill:#e2e2e2;fill-opacity:1;fill-rule:nonzero;stroke:none"
         id="path1320" />
      <path
         d="m 3098.91,3593.9862 0.08,0.05 c 2.18,1.26 2.2,3.3 0.02,4.55 l -19.33,11.16 c -2.17,1.26 -5.7,1.25 -7.89,-0.01 l -0.08,-0.05 c -2.19,-1.26 -2.2,-3.3 -0.02,-4.55 l 19.33,-11.16 c 2.17,-1.26 5.7,-1.25 7.89,0.01"
         style="fill:#bdc3c7;fill-opacity:1;fill-rule:nonzero;stroke:none"
         id="path1322" />
      <path
         d="m 3058.4,3617.4262 1.36,0.73 15.9,-9.16 -1.65,-2.86 -17.52,10.08 1.91,1.21"
         style="fill:#bdc3c7;fill-opacity:1;fill-rule:nonzero;stroke:none"
         id="path1324" />
      <path
         d="m 3075.44,3609.0062 6.95,-3.82 -0.66,-0.08 7.07,-4.08 0.01,0.04 5.21,0.94 v -4.61 H 3094 l -0.97,-1.08 -0.08,-0.04 c -1.08,-0.63 -2.58,-0.77 -3.35,-0.33 l -13.75,7.93 -0.38,0.5 h -0.03 v 4.63"
         style="fill:#262626;fill-opacity:1;fill-rule:nonzero;stroke:none"
         id="path1326" />
      <path
         d="m 3093.03,3600.9362 c 1.08,0.63 1.34,1.49 0.57,1.93 l -13.75,7.94 c -0.76,0.44 -2.26,0.29 -3.34,-0.33 -1.16,-0.67 -1.42,-1.54 -0.66,-1.98 l 13.75,-7.94 c 0.77,-0.44 2.27,-0.29 3.35,0.34 l 0.08,0.04"
         style="fill:#2b2b2b;fill-opacity:1;fill-rule:nonzero;stroke:none"
         id="path1328" />
      <path
         d="m 3385.73,3824.4662 -0.05,-1.13 10.52,-6.04 1.95,0.04 19.11,11.18 0.06,1.13 -10.52,6.03 -1.96,-0.04 -19.11,-11.17"
         style="fill:#7f8b8c;fill-opacity:1;fill-rule:nonzero;stroke:none"
         id="path1330" />
      <path
         d="m 3364.52,3812.0562 -0.06,-1.13 10.52,-6.04 1.96,0.05 15.45,9.04 0.06,1.13 -10.52,6.04 -1.95,-0.05 -15.46,-9.04"
         style="fill:#7f8b8c;fill-opacity:1;fill-rule:nonzero;stroke:none"
         id="path1332" />
      <path
         d="m 3343.4,3799.7062 -0.06,-1.13 10.52,-6.04 1.95,0.05 15.47,9.04 0.06,1.13 -10.52,6.04 -1.96,-0.04 -15.46,-9.05"
         style="fill:#7f8b8c;fill-opacity:1;fill-rule:nonzero;stroke:none"
         id="path1334" />
      <path
         d="m 3322.28,3787.3662 -0.05,-1.14 10.52,-6.03 1.95,0.04 15.47,9.05 0.05,1.12 -10.52,6.04 -1.95,-0.04 -15.47,-9.04"
         style="fill:#7f8b8c;fill-opacity:1;fill-rule:nonzero;stroke:none"
         id="path1336" />
      <path
         d="m 3301.17,3775.0162 -0.06,-1.13 10.52,-6.04 1.96,0.05 15.45,9.04 0.06,1.13 -10.52,6.03 -1.95,-0.04 -15.46,-9.04"
         style="fill:#7f8b8c;fill-opacity:1;fill-rule:nonzero;stroke:none"
         id="path1338" />
      <path
         d="m 3280.05,3762.6662 -0.06,-1.13 10.52,-6.04 1.95,0.05 15.47,9.04 0.06,1.13 -10.52,6.04 -1.95,-0.05 -15.47,-9.04"
         style="fill:#7f8b8c;fill-opacity:1;fill-rule:nonzero;stroke:none"
         id="path1340" />
      <path
         d="m 3258.94,3750.3262 -0.06,-1.14 10.52,-6.03 1.95,0.04 15.47,9.05 0.05,1.12 -10.52,6.04 -1.95,-0.04 -15.46,-9.04"
         style="fill:#7f8b8c;fill-opacity:1;fill-rule:nonzero;stroke:none"
         id="path1342" />
      <path
         d="m 3237.82,3737.9762 -0.06,-1.13 10.52,-6.04 1.95,0.04 15.46,9.04 0.06,1.14 -10.52,6.03 -1.95,-0.04 -15.46,-9.04"
         style="fill:#7f8b8c;fill-opacity:1;fill-rule:nonzero;stroke:none"
         id="path1344" />
      <path
         d="m 3216.7,3725.6262 -0.06,-1.13 10.52,-6.04 1.95,0.04 15.47,9.05 0.06,1.13 -10.52,6.04 -1.95,-0.05 -15.47,-9.04"
         style="fill:#7f8b8c;fill-opacity:1;fill-rule:nonzero;stroke:none"
         id="path1346" />
      <path
         d="m 3195.59,3713.2762 -0.06,-1.13 10.52,-6.04 1.95,0.05 15.47,9.04 0.05,1.13 -10.52,6.04 -1.95,-0.04 -15.46,-9.05"
         style="fill:#7f8b8c;fill-opacity:1;fill-rule:nonzero;stroke:none"
         id="path1348" />
      <path
         d="m 3174.46,3700.9262 -0.05,-1.12 10.52,-6.04 1.96,0.04 15.46,9.04 0.05,1.13 -10.52,6.04 -1.95,-0.04 -15.47,-9.05"
         style="fill:#7f8b8c;fill-opacity:1;fill-rule:nonzero;stroke:none"
         id="path1350" />
      <path
         d="m 3153.35,3688.5862 -0.06,-1.13 10.52,-6.04 1.96,0.04 15.46,9.05 0.06,1.13 -10.52,6.04 -1.95,-0.05 -15.47,-9.04"
         style="fill:#7f8b8c;fill-opacity:1;fill-rule:nonzero;stroke:none"
         id="path1352" />
      <path
         d="m 3132.24,3676.2362 -0.06,-1.13 10.52,-6.04 1.95,0.05 15.47,9.04 0.05,1.13 -10.52,6.04 -1.96,-0.05 -15.45,-9.04"
         style="fill:#7f8b8c;fill-opacity:1;fill-rule:nonzero;stroke:none"
         id="path1354" />
      <path
         d="m 3109.01,3662.6562 -0.06,-1.13 10.52,-6.04 1.96,0.05 19.56,11.44 0.06,1.13 -10.52,6.04 -1.96,-0.05 -19.56,-11.44"
         style="fill:#7f8b8c;fill-opacity:1;fill-rule:nonzero;stroke:none"
         id="path1356" />
      <path
         d="m 3401.29,3815.5362 -0.05,-1.13 14.17,-8.13 1.94,0.04 19.11,11.18 0.06,1.13 -14.17,8.13 -1.95,-0.05 -19.11,-11.17"
         style="fill:#7f8b8c;fill-opacity:1;fill-rule:nonzero;stroke:none"
         id="path1358" />
      <path
         d="m 3379.86,3803.0062 -0.06,-1.13 14.17,-8.13 1.95,0.04 15.74,9.2 0.06,1.13 -14.17,8.14 -1.96,-0.05 -15.73,-9.2"
         style="fill:#7f8b8c;fill-opacity:1;fill-rule:nonzero;stroke:none"
         id="path1360" />
      <path
         d="m 3358.45,3790.4862 -0.06,-1.13 14.17,-8.13 1.96,0.04 15.73,9.2 0.06,1.14 -14.17,8.13 -1.96,-0.05 -15.73,-9.2"
         style="fill:#7f8b8c;fill-opacity:1;fill-rule:nonzero;stroke:none"
         id="path1362" />
      <path
         d="m 3337.04,3777.9662 -0.06,-1.13 14.17,-8.13 1.96,0.05 15.73,9.2 0.06,1.13 -14.17,8.13 -1.96,-0.05 -15.73,-9.2"
         style="fill:#7f8b8c;fill-opacity:1;fill-rule:nonzero;stroke:none"
         id="path1364" />
      <path
         d="m 3315.63,3765.4562 -0.06,-1.14 14.17,-8.13 1.96,0.05 15.73,9.2 0.06,1.13 -14.17,8.13 -1.96,-0.04 -15.73,-9.2"
         style="fill:#7f8b8c;fill-opacity:1;fill-rule:nonzero;stroke:none"
         id="path1366" />
      <path
         d="m 3294.22,3752.9362 -0.06,-1.13 14.17,-8.14 1.96,0.05 15.73,9.2 0.06,1.13 -14.17,8.13 -1.96,-0.04 -15.73,-9.2"
         style="fill:#7f8b8c;fill-opacity:1;fill-rule:nonzero;stroke:none"
         id="path1368" />
      <path
         d="m 3272.81,3740.4162 -0.06,-1.13 14.17,-8.14 1.96,0.05 15.73,9.2 0.06,1.13 -14.17,8.13 -1.96,-0.04 -15.73,-9.2"
         style="fill:#7f8b8c;fill-opacity:1;fill-rule:nonzero;stroke:none"
         id="path1370" />
      <path
         d="m 3251.4,3727.8962 -0.06,-1.13 14.17,-8.13 1.96,0.04 15.73,9.2 0.06,1.13 -14.17,8.14 -1.95,-0.05 -15.74,-9.2"
         style="fill:#7f8b8c;fill-opacity:1;fill-rule:nonzero;stroke:none"
         id="path1372" />
      <path
         d="m 3229.99,3715.3762 -0.06,-1.13 14.18,-8.13 1.94,0.04 15.74,9.2 0.05,1.13 -14.17,8.13 -1.94,-0.04 -15.74,-9.2"
         style="fill:#7f8b8c;fill-opacity:1;fill-rule:nonzero;stroke:none"
         id="path1374" />
      <path
         d="m 3208.57,3702.8562 -0.05,-1.13 14.18,-8.13 1.94,0.04 15.74,9.2 0.05,1.13 -14.17,8.13 -1.94,-0.04 -15.75,-9.2"
         style="fill:#7f8b8c;fill-opacity:1;fill-rule:nonzero;stroke:none"
         id="path1376" />
      <path
         d="m 3187.16,3690.3362 -0.06,-1.13 14.18,-8.13 1.95,0.04 15.74,9.21 0.05,1.12 -14.17,8.13 -1.94,-0.03 -15.75,-9.21"
         style="fill:#7f8b8c;fill-opacity:1;fill-rule:nonzero;stroke:none"
         id="path1378" />
      <path
         d="m 3165.76,3677.8162 -0.06,-1.13 14.17,-8.13 1.95,0.04 15.74,9.2 0.06,1.13 -14.18,8.14 -1.95,-0.05 -15.73,-9.2"
         style="fill:#7f8b8c;fill-opacity:1;fill-rule:nonzero;stroke:none"
         id="path1380" />
      <path
         d="m 3416.48,3802.5062 -0.05,-1.13 14.17,-8.13 1.94,0.05 22.84,13.34 0.06,1.13 -14.17,8.13 -1.95,-0.04 -22.84,-13.35"
         style="fill:#7f8b8c;fill-opacity:1;fill-rule:nonzero;stroke:none"
         id="path1382" />
      <path
         d="m 3394.74,3789.7962 -0.06,-1.14 14.17,-8.13 1.96,0.05 15.73,9.2 0.06,1.13 -14.17,8.13 -1.96,-0.04 -15.73,-9.2"
         style="fill:#7f8b8c;fill-opacity:1;fill-rule:nonzero;stroke:none"
         id="path1384" />
      <path
         d="m 3431.05,3789.1162 -0.06,-1.13 14.17,-8.13 1.96,0.04 27.17,15.89 0.06,1.13 -14.17,8.13 -1.96,-0.04 -27.17,-15.89"
         style="fill:#7f8b8c;fill-opacity:1;fill-rule:nonzero;stroke:none"
         id="path1386" />
      <path
         d="m 3373.33,3777.2762 -0.06,-1.14 14.17,-8.13 1.96,0.05 15.72,9.2 0.07,1.13 -14.17,8.13 -1.96,-0.04 -15.73,-9.2"
         style="fill:#7f8b8c;fill-opacity:1;fill-rule:nonzero;stroke:none"
         id="path1388" />
      <path
         d="m 3351.92,3764.7562 -0.06,-1.13 14.17,-8.14 1.96,0.05 15.73,9.2 0.06,1.13 -14.17,8.13 -1.96,-0.04 -15.73,-9.2"
         style="fill:#7f8b8c;fill-opacity:1;fill-rule:nonzero;stroke:none"
         id="path1390" />
      <path
         d="m 3330.51,3752.2362 -0.06,-1.13 14.17,-8.13 1.96,0.04 15.73,9.2 0.06,1.13 -14.17,8.13 -1.95,-0.04 -15.74,-9.2"
         style="fill:#7f8b8c;fill-opacity:1;fill-rule:nonzero;stroke:none"
         id="path1392" />
      <path
         d="m 3309.1,3739.7162 -0.06,-1.13 14.18,-8.13 1.95,0.04 15.73,9.2 0.06,1.13 -14.17,8.14 -1.95,-0.05 -15.74,-9.2"
         style="fill:#7f8b8c;fill-opacity:1;fill-rule:nonzero;stroke:none"
         id="path1394" />
      <path
         d="m 3287.69,3727.1962 -0.06,-1.13 14.18,-8.13 1.95,0.04 15.73,9.2 0.06,1.14 -14.17,8.13 -1.95,-0.05 -15.74,-9.2"
         style="fill:#7f8b8c;fill-opacity:1;fill-rule:nonzero;stroke:none"
         id="path1396" />
      <path
         d="m 3266.28,3714.6762 -0.06,-1.13 14.18,-8.13 1.95,0.05 15.73,9.2 0.06,1.13 -14.17,8.13 -1.95,-0.05 -15.74,-9.2"
         style="fill:#7f8b8c;fill-opacity:1;fill-rule:nonzero;stroke:none"
         id="path1398" />
      <path
         d="m 3244.87,3702.1662 -0.05,-1.14 14.17,-8.13 1.95,0.05 15.74,9.2 0.05,1.13 -14.17,8.13 -1.95,-0.04 -15.74,-9.2"
         style="fill:#7f8b8c;fill-opacity:1;fill-rule:nonzero;stroke:none"
         id="path1400" />
      <path
         d="m 3223.46,3689.6362 -0.05,-1.12 14.17,-8.14 1.94,0.04 15.75,9.21 0.06,1.13 -14.19,8.13 -1.94,-0.04 -15.74,-9.21"
         style="fill:#7f8b8c;fill-opacity:1;fill-rule:nonzero;stroke:none"
         id="path1402" />
      <path
         d="m 3202.05,3677.1162 -0.05,-1.12 14.17,-8.13 1.94,0.03 15.75,9.21 0.05,1.13 -14.18,8.13 -1.94,-0.04 -15.74,-9.21"
         style="fill:#7f8b8c;fill-opacity:1;fill-rule:nonzero;stroke:none"
         id="path1404" />
      <path
         d="m 3180.64,3664.6062 -0.06,-1.14 14.17,-8.13 1.95,0.05 15.74,9.2 0.06,1.13 -14.18,8.13 -1.95,-0.04 -15.73,-9.2"
         style="fill:#7f8b8c;fill-opacity:1;fill-rule:nonzero;stroke:none"
         id="path1406" />
      <path
         d="m 3409.61,3776.5762 -0.06,-1.13 14.17,-8.13 1.96,0.05 15.74,9.2 0.05,1.13 -14.17,8.13 -1.95,-0.05 -15.74,-9.2"
         style="fill:#7f8b8c;fill-opacity:1;fill-rule:nonzero;stroke:none"
         id="path1408" />
      <path
         d="m 3388.2,3764.0662 -0.06,-1.14 14.18,-8.13 1.95,0.05 15.73,9.2 0.06,1.13 -14.17,8.13 -1.95,-0.04 -15.74,-9.2"
         style="fill:#7f8b8c;fill-opacity:1;fill-rule:nonzero;stroke:none"
         id="path1410" />
      <path
         d="m 3366.79,3751.5462 -0.06,-1.13 14.18,-8.14 1.95,0.05 15.73,9.2 0.06,1.13 -14.17,8.13 -1.95,-0.04 -15.74,-9.2"
         style="fill:#7f8b8c;fill-opacity:1;fill-rule:nonzero;stroke:none"
         id="path1412" />
      <path
         d="m 3345.38,3739.0262 -0.06,-1.13 14.18,-8.14 1.95,0.05 15.74,9.2 0.05,1.13 -14.17,8.13 -1.95,-0.04 -15.74,-9.2"
         style="fill:#7f8b8c;fill-opacity:1;fill-rule:nonzero;stroke:none"
         id="path1414" />
      <path
         d="m 3323.97,3726.5062 -0.05,-1.13 14.17,-8.13 1.95,0.04 15.74,9.2 0.05,1.13 -14.17,8.14 -1.95,-0.05 -15.74,-9.2"
         style="fill:#7f8b8c;fill-opacity:1;fill-rule:nonzero;stroke:none"
         id="path1416" />
      <path
         d="m 3302.57,3713.9862 -0.06,-1.13 14.17,-8.13 1.95,0.04 15.74,9.2 0.06,1.14 -14.18,8.13 -1.95,-0.05 -15.73,-9.2"
         style="fill:#7f8b8c;fill-opacity:1;fill-rule:nonzero;stroke:none"
         id="path1418" />
      <path
         d="m 3281.16,3701.4662 -0.06,-1.13 14.17,-8.13 1.95,0.04 15.74,9.2 0.06,1.14 -14.18,8.13 -1.95,-0.05 -15.73,-9.2"
         style="fill:#7f8b8c;fill-opacity:1;fill-rule:nonzero;stroke:none"
         id="path1420" />
      <path
         d="m 3259.75,3688.9562 -0.06,-1.14 14.17,-8.13 1.95,0.05 15.74,9.2 0.06,1.13 -14.18,8.13 -1.95,-0.04 -15.73,-9.2"
         style="fill:#7f8b8c;fill-opacity:1;fill-rule:nonzero;stroke:none"
         id="path1422" />
      <path
         d="m 3238.34,3676.4362 -0.06,-1.13 14.17,-8.14 1.95,0.05 15.74,9.2 0.06,1.13 -14.17,8.13 -1.96,-0.04 -15.73,-9.2"
         style="fill:#7f8b8c;fill-opacity:1;fill-rule:nonzero;stroke:none"
         id="path1424" />
      <path
         d="m 3216.92,3663.9062 -0.05,-1.12 14.17,-8.14 1.95,0.04 15.74,9.21 0.05,1.13 -14.17,8.13 -1.95,-0.04 -15.74,-9.21"
         style="fill:#7f8b8c;fill-opacity:1;fill-rule:nonzero;stroke:none"
         id="path1426" />
      <path
         d="m 3453.24,3780.3462 -0.06,-1.14 14.17,-8.13 1.95,0.05 23.76,13.89 0.06,1.13 -14.17,8.13 -1.95,-0.04 -23.76,-13.89"
         style="fill:#7f8b8c;fill-opacity:1;fill-rule:nonzero;stroke:none"
         id="path1428" />
      <path
         d="m 3431.69,3767.7462 -0.06,-1.14 14.17,-8.13 1.96,0.05 15.73,9.2 0.06,1.13 -14.17,8.13 -1.96,-0.04 -15.73,-9.2"
         style="fill:#7f8b8c;fill-opacity:1;fill-rule:nonzero;stroke:none"
         id="path1430" />
      <path
         d="m 3410.28,3755.2262 -0.06,-1.13 14.17,-8.14 1.96,0.05 15.73,9.2 0.06,1.13 -14.17,8.13 -1.96,-0.04 -15.73,-9.2"
         style="fill:#7f8b8c;fill-opacity:1;fill-rule:nonzero;stroke:none"
         id="path1432" />
      <path
         d="m 3388.86,3742.6962 -0.05,-1.12 14.17,-8.13 1.96,0.04 15.73,9.2 0.06,1.13 -14.17,8.13 -1.95,-0.04 -15.75,-9.21"
         style="fill:#7f8b8c;fill-opacity:1;fill-rule:nonzero;stroke:none"
         id="path1434" />
      <path
         d="m 3367.45,3730.1862 -0.05,-1.13 14.17,-8.13 1.95,0.04 15.74,9.2 0.05,1.13 -14.17,8.13 -1.94,-0.04 -15.75,-9.2"
         style="fill:#7f8b8c;fill-opacity:1;fill-rule:nonzero;stroke:none"
         id="path1436" />
      <path
         d="m 3346.04,3717.6662 -0.06,-1.13 14.18,-8.14 1.95,0.05 15.73,9.2 0.06,1.13 -14.17,8.13 -1.94,-0.04 -15.75,-9.2"
         style="fill:#7f8b8c;fill-opacity:1;fill-rule:nonzero;stroke:none"
         id="path1438" />
      <path
         d="m 3324.63,3705.1462 -0.06,-1.13 14.18,-8.13 1.95,0.04 15.73,9.2 0.06,1.13 -14.17,8.13 -1.95,-0.04 -15.74,-9.2"
         style="fill:#7f8b8c;fill-opacity:1;fill-rule:nonzero;stroke:none"
         id="path1440" />
      <path
         d="m 3303.22,3692.6262 -0.06,-1.13 14.18,-8.13 1.95,0.04 15.74,9.2 0.05,1.13 -14.17,8.14 -1.95,-0.05 -15.74,-9.2"
         style="fill:#7f8b8c;fill-opacity:1;fill-rule:nonzero;stroke:none"
         id="path1442" />
      <path
         d="m 3281.81,3680.1062 -0.05,-1.13 14.17,-8.13 1.95,0.04 15.74,9.2 0.06,1.14 -14.18,8.13 -1.95,-0.05 -15.74,-9.2"
         style="fill:#7f8b8c;fill-opacity:1;fill-rule:nonzero;stroke:none"
         id="path1444" />
      <path
         d="m 3260.41,3667.5862 -0.06,-1.13 14.17,-8.13 1.95,0.04 15.74,9.2 0.06,1.14 -14.18,8.13 -1.95,-0.05 -15.73,-9.2"
         style="fill:#7f8b8c;fill-opacity:1;fill-rule:nonzero;stroke:none"
         id="path1446" />
      <path
         d="m 3239,3655.0762 -0.06,-1.14 14.17,-8.13 1.95,0.05 15.74,9.2 0.06,1.13 -14.18,8.13 -1.95,-0.04 -15.73,-9.2"
         style="fill:#7f8b8c;fill-opacity:1;fill-rule:nonzero;stroke:none"
         id="path1448" />
      <path
         d="m 3124.56,3653.7362 -0.05,-1.13 14.17,-8.14 1.95,0.05 17.49,10.23 2.01,1.17 16,9.35 0.06,1.13 -14.18,8.14 -1.95,-0.05 -16,-9.35 -2,-1.18 -17.5,-10.22"
         style="fill:#7f8b8c;fill-opacity:1;fill-rule:nonzero;stroke:none"
         id="path1450" />
      <path
         d="m 3143.48,3642.8762 -0.06,-1.13 14.18,-8.13 1.94,0.05 15.35,8.96 2.01,1.18 14,8.19 0.07,1.13 -14.17,8.13 -1.95,-0.04 -14.01,-8.19 -2.02,-1.18 -15.34,-8.97"
         style="fill:#7f8b8c;fill-opacity:1;fill-rule:nonzero;stroke:none"
         id="path1452" />
      <path
         d="m 3162.39,3632.0262 -0.06,-1.13 14.18,-8.13 1.95,0.04 28.91,16.91 2.02,1.17 6.86,4.02 2.01,1.17 6.86,4.01 0.06,1.14 -14.17,8.13 -1.96,-0.05 -6.86,-4.01 -2.01,-1.18 -6.86,-4.01 -2.02,-1.17 -28.91,-16.91"
         style="fill:#7f8b8c;fill-opacity:1;fill-rule:nonzero;stroke:none"
         id="path1454" />
      <path
         d="m 3217.57,3642.5462 -0.06,-1.14 14.17,-8.13 1.95,0.05 15.74,9.2 0.06,1.13 -14.17,8.13 -1.96,-0.04 -15.73,-9.2"
         style="fill:#7f8b8c;fill-opacity:1;fill-rule:nonzero;stroke:none"
         id="path1456" />
      <path
         d="m 3181.16,3621.2562 -0.05,-1.13 14.17,-8.13 1.95,0.04 18.89,11.05 2.01,1.17 3.99,2.33 2.01,1.18 3.99,2.33 0.06,1.13 -14.18,8.13 -1.95,-0.04 -3.99,-2.33 -2.01,-1.18 -3.99,-2.33 -2,-1.17 -18.9,-11.05"
         style="fill:#7f8b8c;fill-opacity:1;fill-rule:nonzero;stroke:none"
         id="path1458" />
      <path
         d="m 3481.93,3773.9462 -0.05,-1.13 14.17,-8.13 1.95,0.04 15.19,8.88 0.06,1.13 -14.18,8.13 -1.95,-0.04 -15.19,-8.88"
         style="fill:#7f8b8c;fill-opacity:1;fill-rule:nonzero;stroke:none"
         id="path1460" />
      <path
         d="m 3460.2,3761.2362 -0.06,-1.13 14.18,-8.13 1.95,0.04 15.73,9.2 0.06,1.14 -14.17,8.13 -1.95,-0.05 -15.74,-9.2"
         style="fill:#7f8b8c;fill-opacity:1;fill-rule:nonzero;stroke:none"
         id="path1462" />
      <path
         d="m 3438.79,3748.7262 -0.06,-1.14 14.18,-8.13 1.95,0.05 15.73,9.2 0.06,1.13 -14.17,8.13 -1.95,-0.04 -15.74,-9.2"
         style="fill:#7f8b8c;fill-opacity:1;fill-rule:nonzero;stroke:none"
         id="path1464" />
      <path
         d="m 3417.38,3736.2062 -0.05,-1.14 14.17,-8.13 1.95,0.05 15.74,9.2 0.05,1.13 -14.17,8.13 -1.95,-0.04 -15.74,-9.2"
         style="fill:#7f8b8c;fill-opacity:1;fill-rule:nonzero;stroke:none"
         id="path1466" />
      <path
         d="m 3285.28,3658.9562 -0.15,-1.18 14.17,-8.14 2.04,0.1 127.06,74.29 0.16,1.19 -14.18,8.13 -2.05,-0.1 -127.05,-74.29"
         style="fill:#7f8b8c;fill-opacity:1;fill-rule:nonzero;stroke:none"
         id="path1468" />
      <path
         d="m 3265.29,3647.2662 -0.06,-1.13 14.17,-8.13 1.96,0.04 15.73,9.2 0.06,1.14 -14.17,8.13 -1.96,-0.05 -15.73,-9.2"
         style="fill:#7f8b8c;fill-opacity:1;fill-rule:nonzero;stroke:none"
         id="path1470" />
      <path
         d="m 3243.88,3634.7562 -0.06,-1.14 14.17,-8.13 1.96,0.05 15.73,9.2 0.06,1.13 -14.17,8.13 -1.96,-0.04 -15.73,-9.2"
         style="fill:#7f8b8c;fill-opacity:1;fill-rule:nonzero;stroke:none"
         id="path1472" />
      <path
         d="m 3222.47,3622.2362 -0.06,-1.14 5.56,-3.18 1.95,0.04 15.74,9.2 0.05,1.13 -5.55,3.19 -1.96,-0.04 -15.73,-9.2"
         style="fill:#7f8b8c;fill-opacity:1;fill-rule:nonzero;stroke:none"
         id="path1474" />
      <path
         d="m 3231.09,3617.2862 -0.06,-1.13 5.55,-3.19 1.96,0.05 15.73,9.2 0.06,1.13 -5.56,3.19 -1.95,-0.05 -15.73,-9.2"
         style="fill:#7f8b8c;fill-opacity:1;fill-rule:nonzero;stroke:none"
         id="path1476" />
      <path
         d="m 3201.03,3609.6962 -0.05,-1.13 14.17,-8.13 1.95,0.04 15.74,9.21 0.05,1.12 -14.17,8.14 -1.95,-0.04 -15.74,-9.21"
         style="fill:#7f8b8c;fill-opacity:1;fill-rule:nonzero;stroke:none"
         id="path1478" />
    </g>
    <text
       xml:space="preserve"
       style="font-size:0.352778px;line-height:1.25;font-family:sans-serif;letter-spacing:0px;stroke-width:0.264583"
       x="117.60388"
       y="219.05046"
       id="text34135-8"
       transform="matrix(1.0384059,0.57257464,-0.21321291,0.84544945,0,0)"><tspan
         sodipodi:role="line"
         style="font-size:0.352778px;stroke-width:0.264583"
         x="117.60388"
         y="219.05046"
         id="tspan80463-6">Finding the best </tspan><tspan
         sodipodi:role="line"
         style="font-size:0.352778px;stroke-width:0.264583"
         x="117.60388"
         y="219.49144"
         id="tspan94838">front-end framework</tspan></text>
    <text
       xml:space="preserve"
       style="font-size:0.334822px;line-height:1.25;font-family:sans-serif;letter-spacing:0px;stroke-width:0.251116"
       x="61.326317"
       y="255.12067"
       id="text34135"
       transform="matrix(1.2287531,0.73324805,-0.01547131,0.80460078,0,0)"><tspan
         sodipodi:role="line"
         style="font-size:0.334822px;stroke-width:0.251116"
         x="61.326317"
         y="255.12067"
         id="tspan80463">Why react is </tspan><tspan
         sodipodi:role="line"
         style="font-size:0.334822px;stroke-width:0.251116"
         x="61.326317"
         y="255.53918"
         id="tspan112882">still better than </tspan><tspan
         sodipodi:role="line"
         style="font-size:0.334822px;stroke-width:0.251116"
         x="61.326317"
         y="255.95773"
         id="tspan127252">angular </tspan></text>
  </g>
</svg>
