<svg xmlns="http://www.w3.org/2000/svg" xmlns:xlink="http://www.w3.org/1999/xlink" version="1.2" baseProfile="tiny" x="0px" y="0px" viewBox="0 0 100 125" xml:space="preserve"><path d="M64.5644531,64.268425l-1.8058472-1.0533447l13.189209-8.2431641l-1.0941162-1.7515869L60.743103,62.03936  l-10.2227783-5.9631958c-0.3216553-0.187561-0.7189941-0.187561-1.0406494,0L39.256958,62.03936l-14.111145-8.8190308  l-1.0941162,1.7515869l13.1896362,8.2431641l-1.8057251,1.0533447c-0.3171387,0.1850586-0.5122681,0.5249023-0.5122681,0.8919678  v16.9699707c0,0.3670654,0.1951294,0.7069092,0.5122681,0.8919067l14.0440674,8.1928101  c0.1608276,0.093811,0.340332,0.140686,0.5203247,0.140686s0.3594971-0.046875,0.5203247-0.140686l14.0441284-8.1928101  c0.3171387-0.1849976,0.5122681-0.5248413,0.5122681-0.8919067V65.1603928  C65.0767212,64.7933273,64.8815918,64.4534836,64.5644531,64.268425z M48.9674072,88.525322l-11.9788818-6.987915V66.9581833  l11.9788818,6.9876099V88.525322z M50,72.1572189l-11.994812-6.9968872L50,58.1635666l11.994812,6.9967651L50,72.1572189z   M63.0114746,81.5374069l-11.9788208,6.987915V73.9457932l11.9788208-6.9876099V81.5374069z"/><path d="M96.9877319,40.6227951l-14.0440674-8.1922607c-0.3216553-0.187561-0.7189941-0.187561-1.0406494,0  l-10.2236328,5.9634399l-14.1102905-8.8187866l-1.0941162,1.7516479l13.1888428,8.2428589l-1.8054199,1.0531006  c-0.3171387,0.1850586-0.5122681,0.5249023-0.5122681,0.8919678v12.5864258h2.0651855V43.3126144l11.9793701,6.9880981v14.5789795  l-8.8638916-5.1707764l-1.0406494,1.7838745l10.4168701,6.0766602c0.1608276,0.093811,0.340332,0.140686,0.5203247,0.140686  s0.3594971-0.046875,0.5203247-0.140686l14.0440674-8.1922607C97.3048706,59.192131,97.5,58.8522873,97.5,58.4852219v-16.970459  C97.5,41.1476974,97.3048706,40.8078537,96.9877319,40.6227951z M82.4233398,48.5120773l-11.9953613-6.9973755l11.9953613-6.9967651  l11.994873,6.9967651L82.4233398,48.5120773z M95.4348145,57.8922653l-11.9788818,6.9874878V50.3006516l11.9788818-6.9880371  V57.8922653z"/><path d="M18.609314,64.8796921V50.3007126l11.9793701-6.9880981v10.7885742h2.0652466V41.5147629  c0-0.3670654-0.1951294-0.7069092-0.5122681-0.8919678l-1.805481-1.0531006l13.1888428-8.2428589l-1.0941162-1.7516479  l-14.1102295,8.8187866l-10.2236328-5.9634399c-0.3216553-0.187561-0.7189941-0.187561-1.0406494,0L3.0122681,40.6227951  C2.6951294,40.8078537,2.5,41.1476974,2.5,41.5147629v16.970459c0,0.3670654,0.1951294,0.7069092,0.5122681,0.8919678  l14.0441284,8.1922607c0.1608276,0.093811,0.340332,0.140686,0.5203247,0.140686s0.3594971-0.046875,0.5203247-0.140686  l10.4168701-6.0766602l-1.0407104-1.7838745L18.609314,64.8796921z M16.5441284,64.8797531L4.5652466,57.8922653V43.3126144  l11.9788818,6.9880371V64.8797531z M17.5767212,48.5120773l-11.994873-6.9973755l11.994873-6.9967651l11.9953003,6.9967651  L17.5767212,48.5120773z"/><path d="M36.9885254,19.6674118l11.9788818,6.9876709v14.5790405l-8.8634033-5.1702881l-1.0406494,1.7838745  l10.4163208,6.0761108c0.1608276,0.093811,0.340332,0.140686,0.5203247,0.140686s0.3594971-0.046875,0.5203247-0.140686  l10.4163818-6.0761108l-1.0407104-1.7838745l-8.8633423,5.1702881V26.6550827l11.9788208-6.9876709v10.7886353h2.0652466V17.8696213  c0-0.3670654-0.1951294-0.7069092-0.5122681-0.8919067L50.5203247,8.7849045c-0.3216553-0.187561-0.7189941-0.187561-1.0406494,0  l-14.0440674,8.1928101c-0.3171387,0.1849976-0.5122681,0.5248413-0.5122681,0.8919067v12.5864258h2.0651855V19.6674118z   M50,10.8723068l11.994873,6.9971924L50,24.8664474l-11.994873-6.9969482L50,10.8723068z"/><text x="0" y="115" fill="#000000" font-size="5px" font-weight="bold" font-family="'Helvetica Neue', Helvetica, Arial-Unicode, Arial, Sans-serif"></text><text x="0" y="120" fill="#000000" font-size="5px" font-weight="bold" font-family="'Helvetica Neue', Helvetica, Arial-Unicode, Arial, Sans-serif"></text></svg>